<svg width="33" height="32" viewBox="0 0 33 32" fill="none" xmlns="http://www.w3.org/2000/svg">
<g clip-path="url(#clip0_531_2607)">
<path d="M31.8615 18.1503L28.119 18.5376L30.5581 15.6606L31.8615 18.1503Z" fill="url(#paint0_linear_531_2607)"/>
<path d="M7.26875 15.5537L6.6595 15.1991C6.58975 15.1534 6.49656 15.1546 6.39406 15.2138L0.89125 18.3908C0.675188 18.5156 0.5 18.8502 0.5 19.1384V24.7319C0.5 24.9021 0.561188 25.0179 0.65575 25.0585L1.07863 25.3044L1.22525 25.3902L7.26875 15.5537Z" fill="url(#paint1_linear_531_2607)"/>
<path d="M7.00069 15.5667L1.49788 18.7437C1.28182 18.8685 1.10663 19.2032 1.10663 19.4913V25.0848C1.10663 25.3729 1.28182 25.5053 1.49788 25.3805L7.00069 22.2035C7.21675 22.0788 7.39194 21.7441 7.39194 21.456V15.8625C7.39194 15.5743 7.21675 15.4419 7.00069 15.5667Z" fill="url(#paint2_linear_531_2607)"/>
<path d="M3.19977 24.398L7.00071 22.2035C7.00883 22.1989 7.01639 22.1919 7.02439 22.1867L3.19977 20.9947V24.398Z" fill="url(#paint3_linear_531_2607)"/>
<path d="M11.2072 22.4876L11.2074 22.4873L11.1996 22.4828C11.1981 22.482 11.1968 22.4811 11.1953 22.4803L4.96252 18.9026L4.96196 18.9038C4.77508 18.7959 4.53189 18.8048 4.26527 18.9587C3.67677 19.2985 3.19971 20.21 3.19971 20.9947C3.19971 21.4276 3.34539 21.7305 3.57446 21.8589L3.57402 21.8598L9.81908 25.444L9.81971 25.4426C10.0069 25.552 10.2509 25.5437 10.5186 25.3891C11.1071 25.0493 11.5841 24.1378 11.5841 23.3531C11.5842 22.9188 11.4376 22.6152 11.2072 22.4876Z" fill="url(#paint4_linear_531_2607)"/>
<path d="M10.1368 22.9932C10.1368 22.9932 8.98564 23.6287 6.31958 23.4355L9.81908 25.444L9.81971 25.4427C10.0069 25.5519 10.2509 25.5437 10.5186 25.3891C10.5616 25.3642 10.6039 25.3355 10.6456 25.3048L10.1368 22.9932Z" fill="url(#paint5_linear_531_2607)"/>
<path d="M9.67273 22.6026V25.7391L9.67329 25.739C9.66242 26.1091 9.88029 26.4638 10.3366 26.7273C11.3199 27.2949 13.0375 27.2238 14.1729 26.5683C14.7769 26.2196 15.0945 25.7758 15.1114 25.3513L15.1122 25.3512V22.1481L9.67273 22.6026Z" fill="url(#paint6_linear_531_2607)"/>
<path d="M9.67273 24.0279L10.1969 23.5037L9.98623 22.5764L9.67273 22.6026V24.0279Z" fill="url(#paint7_linear_531_2607)"/>
<path d="M14.4483 21.2191C13.465 20.6514 11.7474 20.7226 10.612 21.3781C9.47657 22.0336 9.35325 23.0253 10.3366 23.5929C11.3199 24.1606 13.0374 24.0894 14.1729 23.4339C15.3083 22.7784 15.4316 21.7868 14.4483 21.2191Z" fill="url(#paint8_linear_531_2607)"/>
<path d="M12.0953 20.8859C11.5648 20.9627 11.0459 21.1276 10.612 21.3781C9.53388 22.0006 9.36907 22.9258 10.1969 23.5037H12.1603L12.0953 20.8859Z" fill="url(#paint9_linear_531_2607)"/>
<path d="M10.2488 19.1779V22.4227H10.2493C10.2407 22.7144 10.4124 22.994 10.7721 23.2016C11.5471 23.6491 12.9008 23.593 13.7958 23.0763C14.2718 22.8015 14.5221 22.4517 14.5355 22.1171L14.536 22.117V18.8196L10.2488 19.1779Z" fill="url(#paint10_linear_531_2607)"/>
<path d="M14.5361 21.1279V18.8196L10.2488 19.1779V22.4227H10.2493C10.2407 22.7144 10.4124 22.994 10.7721 23.2016C11.1415 23.4149 11.6425 23.5125 12.1625 23.5016L14.5361 21.1279Z" fill="url(#paint11_linear_531_2607)"/>
<path d="M27.3939 14.0974L23.385 16.412C23.1752 16.5331 23.0161 16.7257 22.9368 16.9547L20.6071 23.68C20.5115 23.9562 20.5405 24.2603 20.6866 24.5134L22.5561 27.7515C22.8343 28.2333 23.4504 28.3984 23.9322 28.1202L27.9411 25.8057C28.1509 25.6845 28.31 25.4918 28.3893 25.263L30.719 18.5377C30.8146 18.2615 30.7856 17.9573 30.6395 17.7042L28.77 14.4662C28.4918 13.9843 27.8757 13.8192 27.3939 14.0974Z" fill="url(#paint12_linear_531_2607)"/>
<path d="M28.133 18.924C28.133 16.6219 26.7333 15.5638 25.0067 16.5607C23.2802 17.5575 21.8805 20.2319 21.8805 22.5339C21.8805 24.836 23.2802 25.8942 25.0067 24.8973C26.7334 23.9005 28.133 21.2262 28.133 18.924Z" fill="url(#paint13_linear_531_2607)"/>
<path d="M26.6781 19.7641C26.6781 18.5334 25.9298 17.9677 25.0068 18.5007C24.0838 19.0336 23.3356 20.4632 23.3356 21.6939C23.3356 22.9246 24.0838 23.4903 25.0068 22.9574C25.9298 22.4245 26.6781 20.9948 26.6781 19.7641Z" fill="url(#paint14_linear_531_2607)"/>
<path d="M26.2698 19.9998C26.2698 19.0696 25.7043 18.6421 25.0067 19.0448C24.3091 19.4476 23.7436 20.5281 23.7436 21.4583C23.7436 22.3884 24.3091 22.8159 25.0067 22.4132C25.7043 22.0104 26.2698 20.9299 26.2698 19.9998Z" fill="url(#paint15_linear_531_2607)"/>
<path d="M25.6699 20.3462C25.6699 19.8579 25.3731 19.6334 25.0068 19.8449C24.6406 20.0563 24.3437 20.6236 24.3437 21.1119C24.3437 21.6002 24.6406 21.8247 25.0068 21.6132C25.373 21.4017 25.6699 20.8345 25.6699 20.3462Z" fill="url(#paint16_linear_531_2607)"/>
<path d="M27.0937 23.917C27.0937 23.6261 26.9168 23.4923 26.6986 23.6183C26.4803 23.7443 26.3035 24.0823 26.3035 24.3733C26.3035 24.6642 26.4803 24.798 26.6986 24.672C26.9168 24.546 27.0937 24.208 27.0937 23.917Z" fill="#FF4757"/>
<path d="M25.8594 19.6052C25.8594 19.3261 25.6898 19.1978 25.4804 19.3187C25.2711 19.4395 25.1015 19.7637 25.1015 20.0427C25.1015 20.3218 25.2712 20.45 25.4804 20.3292C25.6898 20.2084 25.8594 19.8842 25.8594 19.6052Z" fill="url(#paint17_linear_531_2607)"/>
<path d="M24.7594 21.4824C24.7594 21.3274 24.6651 21.2561 24.5489 21.3233C24.4326 21.3904 24.3384 21.5705 24.3384 21.7255C24.3384 21.8805 24.4326 21.9518 24.5489 21.8847C24.6651 21.8175 24.7594 21.6374 24.7594 21.4824Z" fill="url(#paint18_linear_531_2607)"/>
<path d="M25.0067 16.5608C23.2802 17.5577 21.8805 20.232 21.8805 22.5341C21.8805 23.6852 22.2304 24.5252 22.7961 24.9529L27.2173 16.5054C26.6516 16.0777 25.8701 16.0623 25.0067 16.5608Z" fill="url(#paint19_linear_531_2607)"/>
<path d="M29.9833 17.3244L28.1138 14.0864C28.0907 14.0464 27.4264 14.3703 27.4753 14.455L29.3448 17.693C29.384 17.7609 29.3918 17.8424 29.3661 17.9165L27.0364 24.6419C27.0151 24.7032 26.9724 24.7549 26.9162 24.7874L22.9073 27.1019C22.8655 27.126 23.1172 27.832 23.2759 27.7404L27.2848 25.4259C27.4946 25.3047 27.6537 25.112 27.7329 24.8832L30.0626 18.1579C30.1584 17.8817 30.1294 17.5775 29.9833 17.3244Z" fill="url(#paint20_linear_531_2607)"/>
<path d="M27.8966 14.6995C27.9948 14.6995 28.0826 14.7501 28.1315 14.8348L30.001 18.0728C30.0403 18.1408 30.048 18.2222 30.0223 18.2963L27.6926 25.0217C27.6713 25.083 27.6286 25.1347 27.5724 25.1672L23.5635 27.4817C23.5217 27.5058 23.4765 27.5181 23.4293 27.5181C23.3311 27.5181 23.2433 27.4675 23.1945 27.3828L21.325 24.1448C21.2858 24.0768 21.278 23.9954 21.3037 23.9213L23.6335 17.196C23.6547 17.1346 23.6974 17.083 23.7536 17.0505L27.7625 14.7359C27.8043 14.7118 27.8495 14.6995 27.8966 14.6995ZM27.8966 13.9623C27.7257 13.9623 27.5526 14.0058 27.3939 14.0974L23.385 16.412C23.1751 16.5331 23.016 16.7258 22.9368 16.9547L20.607 23.68C20.5113 23.9562 20.5403 24.2603 20.6865 24.5134L22.556 27.7515C22.7426 28.0747 23.0813 28.2553 23.4294 28.2553C23.6003 28.2553 23.7735 28.2118 23.9321 28.1202L27.941 25.8057C28.1508 25.6845 28.31 25.4918 28.3892 25.263L30.719 18.5377C30.8146 18.2615 30.7856 17.9573 30.6395 17.7042L28.77 14.4662C28.5835 14.143 28.2448 13.9623 27.8966 13.9623Z" fill="#E9E5F6"/>
<path d="M28.2526 14.0114L10.7107 3.88288L10.7104 3.88357C10.4081 3.70657 10.0223 3.69182 9.69718 3.87951L5.68824 6.19407C5.47849 6.3152 5.31937 6.50782 5.24005 6.73676L2.9103 13.4621C2.81462 13.7383 2.84362 14.0424 2.9898 14.2955L4.8593 17.5336C4.95474 17.6989 5.09062 17.8259 5.24662 17.9116L5.24618 17.9126L22.9318 28.1243L22.9322 28.1233C22.7809 28.0378 22.6492 27.9128 22.556 27.7514L20.6865 24.5133C20.5404 24.2602 20.5114 23.9561 20.607 23.6799L21.1287 22.1739L24.2716 22.5323L25.8777 18.5583L31.1088 15.6599L28.2526 14.0114Z" fill="url(#paint21_linear_531_2607)"/>
<path d="M24.2716 22.5324L25.2469 21.9693L26.3562 18.767C26.3775 18.7056 26.4202 18.654 26.4764 18.6215L30.4853 16.307C30.5271 16.2828 30.5722 16.2706 30.6194 16.2706C30.7176 16.2706 30.8054 16.3211 30.8543 16.4058L31.8615 18.1503L32.5 17.7817L31.4928 16.0372C31.3062 15.714 30.9675 15.5333 30.6194 15.5333C30.4485 15.5333 30.2754 15.5769 30.1167 15.6685L26.1077 17.983C25.8979 18.1041 25.7389 18.2968 25.6595 18.5257L24.2716 22.5324Z" fill="#E9E5F6"/>
</g>
<defs>
<linearGradient id="paint0_linear_531_2607" x1="29.9903" y1="18.5498" x2="29.9903" y2="15.5233" gradientUnits="userSpaceOnUse">
<stop stop-color="#B096ED"/>
<stop offset="1" stop-color="#C9BAEC"/>
</linearGradient>
<linearGradient id="paint1_linear_531_2607" x1="2.1135" y1="20.2941" x2="3.0205" y2="18.7232" gradientUnits="userSpaceOnUse">
<stop stop-color="#322A50"/>
<stop offset="1" stop-color="#43386B"/>
</linearGradient>
<linearGradient id="paint2_linear_531_2607" x1="4.24932" y1="24.3882" x2="4.24932" y2="11.6157" gradientUnits="userSpaceOnUse">
<stop stop-color="#45356D"/>
<stop offset="1" stop-color="#7E62C0"/>
</linearGradient>
<linearGradient id="paint3_linear_531_2607" x1="5.11208" y1="19.935" x2="5.11208" y2="24.9553" gradientUnits="userSpaceOnUse">
<stop stop-color="#221C36"/>
<stop offset="1" stop-color="#221C36" stop-opacity="0"/>
</linearGradient>
<linearGradient id="paint4_linear_531_2607" x1="6.50527" y1="23.7098" x2="8.58408" y2="20.1091" gradientUnits="userSpaceOnUse">
<stop stop-color="#C9BAEC"/>
<stop offset="0.3492" stop-color="#D9D1EC"/>
<stop offset="1" stop-color="#F3EEFA"/>
</linearGradient>
<linearGradient id="paint5_linear_531_2607" x1="8.98177" y1="26.6602" x2="8.24352" y2="23.2732" gradientUnits="userSpaceOnUse">
<stop stop-color="#7662BD"/>
<stop offset="1" stop-color="#7662BD" stop-opacity="0"/>
</linearGradient>
<linearGradient id="paint6_linear_531_2607" x1="10.3778" y1="24.6293" x2="13.2213" y2="24.6293" gradientUnits="userSpaceOnUse">
<stop stop-color="#C9BAEC"/>
<stop offset="0.3492" stop-color="#D9D1EC"/>
<stop offset="1" stop-color="#F3EEFA"/>
</linearGradient>
<linearGradient id="paint7_linear_531_2607" x1="9.28923" y1="21.9282" x2="10.1506" y2="24.1189" gradientUnits="userSpaceOnUse">
<stop stop-color="#7662BD"/>
<stop offset="1" stop-color="#7662BD" stop-opacity="0"/>
</linearGradient>
<linearGradient id="paint8_linear_531_2607" x1="9.38032" y1="20.667" x2="14.2389" y2="23.4721" gradientUnits="userSpaceOnUse">
<stop stop-color="#E1DAEF"/>
<stop offset="1" stop-color="white"/>
</linearGradient>
<linearGradient id="paint9_linear_531_2607" x1="11.6114" y1="22.3108" x2="9.21532" y2="23.6942" gradientUnits="userSpaceOnUse">
<stop stop-color="#7662BD"/>
<stop offset="1" stop-color="#7662BD" stop-opacity="0"/>
</linearGradient>
<linearGradient id="paint10_linear_531_2607" x1="10.8046" y1="21.1616" x2="13.0458" y2="21.1616" gradientUnits="userSpaceOnUse">
<stop stop-color="#C9BAEC"/>
<stop offset="0.3492" stop-color="#D9D1EC"/>
<stop offset="1" stop-color="#F3EEFA"/>
</linearGradient>
<linearGradient id="paint11_linear_531_2607" x1="12.5142" y1="19.9422" x2="10.9074" y2="22.7251" gradientUnits="userSpaceOnUse">
<stop stop-color="#7662BD"/>
<stop offset="1" stop-color="#7662BD" stop-opacity="0"/>
</linearGradient>
<linearGradient id="paint12_linear_531_2607" x1="25.6631" y1="27.1795" x2="20.1842" y2="17.6902" gradientUnits="userSpaceOnUse">
<stop stop-color="#B096ED"/>
<stop offset="1" stop-color="#C9BAEC"/>
</linearGradient>
<linearGradient id="paint13_linear_531_2607" x1="25.0068" y1="16.6918" x2="28.2024" y2="22.2267" gradientUnits="userSpaceOnUse">
<stop stop-color="#322A50"/>
<stop offset="1" stop-color="#43386B"/>
</linearGradient>
<linearGradient id="paint14_linear_531_2607" x1="25.0068" y1="18.5734" x2="26.7152" y2="21.5323" gradientUnits="userSpaceOnUse">
<stop stop-color="#45356D"/>
<stop offset="1" stop-color="#7E62C0"/>
</linearGradient>
<linearGradient id="paint15_linear_531_2607" x1="25.0067" y1="20.3858" x2="26.2979" y2="22.6222" gradientUnits="userSpaceOnUse">
<stop stop-color="#45356D"/>
<stop offset="1" stop-color="#7E62C0"/>
</linearGradient>
<linearGradient id="paint16_linear_531_2607" x1="25.0068" y1="20.5516" x2="25.6846" y2="21.7257" gradientUnits="userSpaceOnUse">
<stop stop-color="#322A50"/>
<stop offset="1" stop-color="#43386B"/>
</linearGradient>
<linearGradient id="paint17_linear_531_2607" x1="26.191" y1="18.4718" x2="24.926" y2="20.1444" gradientUnits="userSpaceOnUse">
<stop stop-color="white"/>
<stop offset="1" stop-color="white" stop-opacity="0"/>
</linearGradient>
<linearGradient id="paint18_linear_531_2607" x1="25.0962" y1="20.5639" x2="24.0678" y2="21.9238" gradientUnits="userSpaceOnUse">
<stop stop-color="white"/>
<stop offset="1" stop-color="white" stop-opacity="0"/>
</linearGradient>
<linearGradient id="paint19_linear_531_2607" x1="29.3963" y1="24.055" x2="22.2011" y2="20.29" gradientUnits="userSpaceOnUse">
<stop stop-color="white"/>
<stop offset="1" stop-color="white" stop-opacity="0"/>
</linearGradient>
<linearGradient id="paint20_linear_531_2607" x1="26.5104" y1="14.7755" x2="26.5104" y2="24.1049" gradientUnits="userSpaceOnUse">
<stop stop-color="#45356D"/>
<stop offset="1" stop-color="#7E62C0"/>
</linearGradient>
<linearGradient id="paint21_linear_531_2607" x1="10.8585" y1="23.8518" x2="20.491" y2="7.16782" gradientUnits="userSpaceOnUse">
<stop offset="0.0709" stop-color="#7662BD"/>
<stop offset="0.2674" stop-color="#CFC2EE"/>
<stop offset="0.615" stop-color="#D9CEF1"/>
<stop offset="0.6419" stop-color="#DED4F3"/>
<stop offset="0.774" stop-color="#F0ECF9"/>
<stop offset="0.8966" stop-color="#FBFAFE"/>
<stop offset="1" stop-color="white"/>
</linearGradient>
<clipPath id="clip0_531_2607">
<rect width="32" height="32" fill="white" transform="translate(0.5)"/>
</clipPath>
</defs>
</svg>
