<svg width="33" height="32" viewBox="0 0 33 32" fill="none" xmlns="http://www.w3.org/2000/svg">
<g clip-path="url(#clip0_531_2424)">
<path d="M23.4462 1.66438L21.7279 0.673447C21.7276 0.67326 21.7274 0.673135 21.7271 0.67301L21.7226 0.670385L21.7226 0.670447C20.0455 -0.30524 17.9296 -0.245928 15.672 1.0457C15.6536 1.0562 15.6353 1.06682 15.6169 1.07745C15.5986 1.08807 15.5802 1.09863 15.5619 1.10932C12.6692 2.79445 10.0091 6.23401 8.20687 10.2913C6.24843 14.7003 6.67187 19.1148 7.57849 21.0239L9.92699 26.1596L8.26312 28.4475C8.11324 28.6535 8.02155 28.9221 8.02155 29.155V30.5466C8.02155 30.7644 8.10074 30.9112 8.22243 30.9616L9.98062 31.9767L13.0959 25.1634L11.0703 10.7703C11.4856 10.0254 23.4462 1.66438 23.4462 1.66438Z" fill="url(#paint0_linear_531_2424)"/>
<path d="M23.8818 10.0825L22.1298 6.02148L19.466 6.9813C19.7613 7.37967 19.9875 7.8858 20.1291 8.48755C20.4475 9.84011 20.3972 11.4999 19.9852 13.234L18.0696 21.297C18.0402 21.4209 18.0252 21.5424 18.0252 21.6562V24.4652C18.0252 24.7744 18.1343 24.986 18.3036 25.0655L20.0744 26.0861L23.8818 10.0825Z" fill="url(#paint1_linear_531_2424)"/>
<path d="M23.0346 19.9798L24.8021 20.9994L22.6111 21.1142L23.0346 19.9798Z" fill="#C5BAEB"/>
<path d="M24.7931 2.75336C22.9909 0.777113 20.3307 0.409238 17.4382 2.06411C17.4198 2.07461 17.4014 2.0853 17.3831 2.09586C17.3647 2.10649 17.3464 2.11705 17.328 2.12774C14.4355 3.81293 11.7754 7.25243 9.9731 11.3097C8.01466 15.7187 8.4381 20.1332 9.34473 22.0424L11.6932 27.1781L10.0294 29.4659C9.87954 29.6719 9.78779 29.9406 9.78779 30.1734V31.5651C9.78779 31.9306 10.01 32.0987 10.2842 31.9404L14.249 29.6513C14.6499 29.4199 14.9749 28.799 14.9749 28.2645V25.4555C14.9749 25.3417 14.9598 25.2375 14.9304 25.1476L13.0148 19.2965C12.6028 18.038 12.5525 16.4364 12.8709 14.7162C13.2625 12.6005 14.2972 10.4686 15.6649 8.95936C16.2169 8.35024 16.8 7.86843 17.383 7.5318C17.9661 7.19518 18.5492 7.00368 19.1012 6.97543C20.4689 6.9053 21.5036 7.84243 21.8952 9.50599C22.2136 10.8586 22.1633 12.5183 21.7513 14.2524L19.8357 22.3155C19.8063 22.4393 19.7912 22.5609 19.7912 22.6747V25.4837C19.7912 26.0182 20.1162 26.2638 20.517 26.0324L24.4819 23.7433C24.756 23.585 24.9783 23.1603 24.9783 22.7947V21.4031C24.9783 21.1703 24.8865 21.0076 24.7367 20.9746L23.0729 20.608L25.4214 12.7604C26.3282 9.80436 26.7516 4.90093 24.7931 2.75336Z" fill="url(#paint2_linear_531_2424)"/>
<path d="M17.9168 3.86197L16.8494 4.47822C16.6911 4.56965 16.5627 4.81484 16.5627 5.02603V6.19047C16.5627 6.40159 16.6911 6.49865 16.8494 6.40722L17.9168 5.79097C18.0751 5.69953 18.2035 5.45434 18.2035 5.24315V4.07872C18.2035 3.86753 18.0751 3.77053 17.9168 3.86197Z" fill="url(#paint3_linear_531_2424)"/>
<path d="M12.8091 9.33971L11.7417 9.95596C11.5834 10.0474 11.455 10.2926 11.455 10.5038V11.6682C11.455 11.8793 11.5834 11.9763 11.7417 11.885L12.8091 11.2687C12.9675 11.1773 13.0958 10.9321 13.0958 10.7209V9.55646C13.0958 9.34534 12.9675 9.24827 12.8091 9.33971Z" fill="url(#paint4_linear_531_2424)"/>
<path d="M11.455 17.0788C11.455 16.8676 11.3267 16.7706 11.1683 16.862L10.101 17.4783C9.94258 17.5697 9.81427 17.8149 9.81427 18.0261V19.1905C9.81427 19.4016 9.94265 19.4986 10.101 19.4073L11.1683 18.791C11.3267 18.6996 11.455 18.4544 11.455 18.2432V17.0788Z" fill="url(#paint5_linear_531_2424)"/>
<path d="M12.8091 22.5838L11.7417 23.2001C11.5834 23.2915 11.455 23.5367 11.455 23.7479V24.9123C11.455 25.1235 11.5834 25.2205 11.7417 25.1291L12.8091 24.5128C12.9675 24.4214 13.0958 24.1762 13.0958 23.965V22.8006C13.0958 22.5894 12.9675 22.4924 12.8091 22.5838Z" fill="url(#paint6_linear_531_2424)"/>
<path d="M21.9571 5.9871L23.0245 5.37085C23.1828 5.27941 23.3112 5.03422 23.3112 4.82303V3.6586C23.3112 3.44753 23.1828 3.35047 23.0245 3.44185L21.9571 4.0581C21.7988 4.14954 21.6704 4.39478 21.6704 4.60591V5.77035C21.6704 5.98147 21.7988 6.07854 21.9571 5.9871Z" fill="url(#paint7_linear_531_2424)"/>
<path d="M24.6653 9.06958L23.598 9.68583C23.4396 9.77727 23.3113 10.0225 23.3113 10.2336V11.3981C23.3113 11.6092 23.4397 11.7062 23.598 11.6148L24.6653 10.9986C24.8237 10.9071 24.952 10.662 24.952 10.4508V9.28627C24.952 9.07514 24.8237 8.97814 24.6653 9.06958Z" fill="url(#paint8_linear_531_2424)"/>
<path d="M23.0245 16.686L21.9571 17.3022C21.7988 17.3936 21.6704 17.6388 21.6704 17.85V19.0145C21.6704 19.2256 21.7988 19.3226 21.9571 19.2312L23.0245 18.615C23.1828 18.5235 23.3112 18.2783 23.3112 18.0672V16.9027C23.3112 16.6916 23.1828 16.5945 23.0245 16.686Z" fill="url(#paint9_linear_531_2424)"/>
</g>
<defs>
<linearGradient id="paint0_linear_531_2424" x1="1.64143" y1="26.0499" x2="31.6806" y2="0.0351975" gradientUnits="userSpaceOnUse">
<stop stop-color="#7662BD"/>
<stop offset="0.3105" stop-color="#E9E5F6"/>
<stop offset="0.5172" stop-color="#A996EB"/>
<stop offset="0.5739" stop-color="#BBACEF"/>
<stop offset="0.6799" stop-color="#D9D1F5"/>
<stop offset="0.7661" stop-color="#EBE7F9"/>
<stop offset="0.8212" stop-color="#F2EFFA"/>
<stop offset="0.8564" stop-color="#E9E4F8"/>
<stop offset="0.9187" stop-color="#D0C6F3"/>
<stop offset="1" stop-color="#A996EB"/>
</linearGradient>
<linearGradient id="paint1_linear_531_2424" x1="15.1895" y1="24.4677" x2="22.995" y2="10.9483" gradientUnits="userSpaceOnUse">
<stop stop-color="#7662BD"/>
<stop offset="0.3105" stop-color="#E9E5F6"/>
<stop offset="0.5172" stop-color="#A996EB"/>
<stop offset="0.5739" stop-color="#BBACEF"/>
<stop offset="0.6799" stop-color="#D9D1F5"/>
<stop offset="0.7661" stop-color="#EBE7F9"/>
<stop offset="0.8212" stop-color="#F2EFFA"/>
<stop offset="0.8564" stop-color="#E9E4F8"/>
<stop offset="0.9187" stop-color="#D0C6F3"/>
<stop offset="1" stop-color="#A996EB"/>
</linearGradient>
<linearGradient id="paint2_linear_531_2424" x1="17.3831" y1="29.3024" x2="6.67893" y2="10.7629" gradientUnits="userSpaceOnUse">
<stop stop-color="#E1DAEF"/>
<stop offset="1" stop-color="white"/>
</linearGradient>
<linearGradient id="paint3_linear_531_2424" x1="18.121" y1="3.85647" x2="16.6452" y2="6.41272" gradientUnits="userSpaceOnUse">
<stop stop-color="#A996EB"/>
<stop offset="0.4097" stop-color="#B6A6EB"/>
<stop offset="1" stop-color="#C5BAEB"/>
</linearGradient>
<linearGradient id="paint4_linear_531_2424" x1="13.0134" y1="9.33421" x2="11.5375" y2="11.8905" gradientUnits="userSpaceOnUse">
<stop stop-color="#A996EB"/>
<stop offset="0.4097" stop-color="#B6A6EB"/>
<stop offset="1" stop-color="#C5BAEB"/>
</linearGradient>
<linearGradient id="paint5_linear_531_2424" x1="11.3726" y1="16.8565" x2="9.89671" y2="19.4128" gradientUnits="userSpaceOnUse">
<stop stop-color="#A996EB"/>
<stop offset="0.4097" stop-color="#B6A6EB"/>
<stop offset="1" stop-color="#C5BAEB"/>
</linearGradient>
<linearGradient id="paint6_linear_531_2424" x1="12.7943" y1="22.9578" x2="12.0143" y2="24.3088" gradientUnits="userSpaceOnUse">
<stop stop-color="#A996EB"/>
<stop offset="0.4097" stop-color="#B6A6EB"/>
<stop offset="1" stop-color="#C5BAEB"/>
</linearGradient>
<linearGradient id="paint7_linear_531_2424" x1="23.2287" y1="3.43635" x2="21.7529" y2="5.9926" gradientUnits="userSpaceOnUse">
<stop stop-color="#A996EB"/>
<stop offset="0.4097" stop-color="#B6A6EB"/>
<stop offset="1" stop-color="#C5BAEB"/>
</linearGradient>
<linearGradient id="paint8_linear_531_2424" x1="24.8695" y1="9.06402" x2="23.3937" y2="11.6203" gradientUnits="userSpaceOnUse">
<stop stop-color="#A996EB"/>
<stop offset="0.4097" stop-color="#B6A6EB"/>
<stop offset="1" stop-color="#C5BAEB"/>
</linearGradient>
<linearGradient id="paint9_linear_531_2424" x1="23.2287" y1="16.6805" x2="21.7529" y2="19.2367" gradientUnits="userSpaceOnUse">
<stop stop-color="#A996EB"/>
<stop offset="0.4097" stop-color="#B6A6EB"/>
<stop offset="1" stop-color="#C5BAEB"/>
</linearGradient>
<clipPath id="clip0_531_2424">
<rect width="32" height="32" fill="white" transform="translate(0.5)"/>
</clipPath>
</defs>
</svg>
