<svg width="33" height="32" viewBox="0 0 33 32" fill="none" xmlns="http://www.w3.org/2000/svg">
<path d="M28.6012 17.6625L28.6013 17.6624L28.5991 17.6611C28.5809 17.6489 27.2755 16.651 27.2755 16.651C27.0666 16.5154 26.788 16.5197 26.4818 16.6964L24.2454 17.967V17.6795C24.2454 17.6574 24.2582 17.2074 23.9689 17.0691L22.4283 16.0123C22.2036 15.912 21.8841 16.0373 21.6041 16.4146L17.0805 22.5086C16.6263 23.1205 16.5896 23.9728 16.9697 24.1815L18.5186 25.2433C18.5466 25.2565 18.5767 25.2664 18.6089 25.2727L23.1325 26.1432C23.6154 26.2222 23.99 25.5414 24.0237 25.4782C24.1584 25.2253 24.2454 24.9296 24.2454 24.6441V22.8799L27.7983 20.8286C28.4459 20.4547 28.9709 19.4516 28.9709 18.588C28.9709 18.1389 28.8287 17.8164 28.6012 17.6625Z" fill="url(#paint0_linear_531_2439)"/>
<path d="M24.2455 17.6797C24.2455 17.6575 24.2583 17.2075 23.9691 17.0693L22.4285 16.0124C22.2038 15.9122 21.8843 16.0375 21.6043 16.4147L17.0807 22.5087C16.6265 23.1206 16.5897 23.9729 16.9699 24.1817L18.5188 25.2435L24.2456 17.9672V17.6797H24.2455Z" fill="url(#paint1_linear_531_2439)"/>
<path d="M27.7983 17.7016L24.2453 19.7529V17.6796C24.2453 16.9181 23.6271 16.7992 23.1325 17.4654L18.6088 23.5594C18.1143 24.2257 18.1143 25.1775 18.6088 25.2727L23.1325 26.1432C23.6271 26.2384 24.2453 25.4056 24.2453 24.6441V22.8799L27.7983 20.8286C28.4459 20.4547 28.9709 19.4516 28.9709 18.5881C28.971 17.7245 28.4459 17.3277 27.7983 17.7016Z" fill="url(#paint2_linear_531_2439)"/>
<path d="M14.3195 16.2625L12.2939 15.097C11.3284 14.5587 10.0778 14.6181 8.71049 15.4075C5.6546 17.1718 3.17725 21.9051 3.17725 25.9797C3.17725 28.286 3.97138 29.886 5.21442 30.5212L7.15821 31.6463L14.3195 16.2625Z" fill="url(#paint3_linear_531_2439)"/>
<path d="M8.30219 20.4769L10.2373 18.1669L7.29539 16.4684C6.59745 17.1168 5.95347 17.911 5.39221 18.7968L8.30219 20.4769Z" fill="url(#paint4_linear_531_2439)"/>
<path d="M3.24017 27.0555C3.45009 28.7843 4.17517 29.9902 5.21441 30.5212L7.15819 31.6463L5.64422 28.4436L3.24017 27.0555Z" fill="url(#paint5_linear_531_2439)"/>
<path d="M16.2792 20.7638C16.2792 16.6893 13.8019 14.8165 10.7459 16.5808C7.69006 18.3451 5.21271 23.0785 5.21271 27.153C5.21271 31.2276 7.69 33.1004 10.7459 31.336C13.8018 29.5717 16.2792 24.8384 16.2792 20.7638Z" fill="url(#paint6_linear_531_2439)"/>
<path d="M10.7459 16.5808C7.69006 18.3451 5.21271 23.0784 5.21271 27.153C5.21271 28.1693 5.36686 29.0485 5.64565 29.7686L16.0318 18.7191C15.3327 16.1162 13.2306 15.1462 10.7459 16.5808Z" fill="url(#paint7_linear_531_2439)"/>
<path d="M12.7414 25.4668C12.8291 25.2991 12.9099 25.1296 12.9837 24.9592C13.1628 24.5457 13.0918 24.2536 12.8099 24.2181L12.4405 24.1716C12.2452 24.147 11.9052 24.4152 11.7515 24.7102C11.7505 24.7122 11.7495 24.7142 11.7484 24.7162C11.1948 25.774 10.2971 26.2923 9.74348 25.8737C9.18983 25.4551 9.18983 24.2583 9.74348 23.2004C10.2971 22.1426 11.1948 21.6243 11.7484 22.0429C11.7492 22.0435 11.75 22.0441 11.7507 22.0447C11.8662 22.1328 12.1576 21.9701 12.3415 21.711L12.7503 21.1353C12.9933 20.793 13.0719 20.4677 12.9416 20.3274C12.8795 20.2606 12.8128 20.1998 12.7413 20.1457C11.6392 19.3126 9.85252 20.3441 8.75053 22.4498C7.64854 24.5555 7.64847 26.9377 8.75053 27.7709C9.85259 28.604 11.6394 27.5724 12.7414 25.4668Z" fill="url(#paint8_linear_531_2439)"/>
<path d="M14.2393 26.5992C16.1686 22.9129 16.1686 18.7422 14.2393 17.2837C12.31 15.8252 9.18197 17.6311 7.25271 21.3174C5.3234 25.0037 5.3234 29.1744 7.25271 30.6329C9.18197 32.0914 12.31 30.2855 14.2393 26.5992ZM7.78265 29.6203C6.14604 28.3831 6.14604 24.8451 7.78265 21.7181C9.41927 18.5911 12.0727 17.0591 13.7093 18.2963C15.346 19.5335 15.346 23.0715 13.7093 26.1985C12.0727 29.3256 9.41921 30.8575 7.78265 29.6203Z" fill="url(#paint9_linear_531_2439)"/>
<path d="M7.88098 29.6901C7.84785 29.6678 7.81497 29.6448 7.78266 29.6203C6.14604 28.3831 6.14604 24.8451 7.78266 21.7181C9.30349 18.8123 11.7021 17.2843 13.3472 18.0754C11.7044 16.9694 9.12314 18.5016 7.5189 21.5669C5.88229 24.6939 5.88229 28.2319 7.5189 29.4691C7.63469 29.5566 7.75571 29.6298 7.88098 29.6901Z" fill="url(#paint10_linear_531_2439)"/>
<path d="M14.2393 17.2837C14.1098 17.1858 13.9748 17.1031 13.8352 17.0342C13.8826 17.0654 13.9295 17.0977 13.9755 17.1325C15.9048 18.591 15.9048 22.7617 13.9755 26.4479C12.1757 29.8868 9.33286 31.6888 7.39301 30.7312C9.33074 32.0036 12.356 30.1975 14.2393 26.5992C16.1685 22.9129 16.1685 18.7422 14.2393 17.2837Z" fill="url(#paint11_linear_531_2439)"/>
<path d="M15.9927 7.99166L15.993 7.99122L14.4913 6.88542C14.4906 6.88499 14.4821 6.88043 14.4821 6.88043C14.3938 6.80632 9.84093 5.96596 9.84093 5.96596C9.34636 5.87076 8.72808 6.70364 8.72808 7.46508V9.66227L5.34687 11.6144C4.69927 11.9883 4.17426 12.9915 4.17426 13.855C4.17426 14.3338 4.33583 14.6688 4.5901 14.8087L4.59004 14.8088L5.86964 15.792C6.20968 16.0177 6.62478 15.7689 6.6634 15.7466L8.72815 14.5545V14.7244C8.72815 15.0294 8.82746 15.231 8.97811 15.3207L8.97799 15.3208L8.98161 15.3229C8.98329 15.3239 8.98498 15.3248 8.98666 15.3258L10.4873 16.1358C10.829 16.3333 11.2323 15.944 11.355 15.7569L15.8787 9.6629C16.161 9.31199 16.4855 8.33826 15.9927 7.99166Z" fill="url(#paint12_linear_531_2439)"/>
<path d="M8.72809 14.5546V14.7245C8.72809 15.0294 8.8274 15.2311 8.97806 15.3208L8.97793 15.3209L8.98155 15.323C8.98323 15.324 8.98492 15.325 8.9866 15.326L10.4872 16.1359L10.2422 13.6805L8.72809 14.5546Z" fill="url(#paint13_linear_531_2439)"/>
<path d="M15.9927 7.99166L15.9923 7.99072L14.4912 6.88542C14.4905 6.88499 14.482 6.88043 14.482 6.88043C14.3938 6.80632 9.84087 5.96596 9.84087 5.96596C9.3463 5.87076 8.72809 6.70364 8.72809 7.46508V9.66227L10.2422 10.5534L15.9927 7.99166Z" fill="url(#paint14_linear_531_2439)"/>
<path d="M15.8786 7.94955L11.355 7.079C10.8604 6.9838 10.2422 7.81668 10.2422 8.57812V10.5534L6.6634 12.6195C6.01574 12.9935 5.49072 13.9966 5.49072 14.86C5.49072 15.7235 6.01574 16.1205 6.6634 15.7465L10.2422 13.6803V15.5427C10.2422 16.3041 10.8604 16.4231 11.355 15.7568L15.8786 9.66284C16.3732 8.99665 16.3732 8.04475 15.8786 7.94955Z" fill="url(#paint15_linear_531_2439)"/>
<path d="M20.7487 1.75125L20.7486 1.75131C19.7902 2.65936 18.9389 3.84844 18.2686 5.17139L18.2685 5.17201L16.8944 9.28823L16.8925 9.29265C16.7716 10.0023 16.7117 10.7096 16.7221 11.3972C16.732 12.0524 16.8052 12.6493 16.9331 13.1833L20.7919 17.0212L27.8559 1.52742L25.7576 0.3578C25.751 0.354057 25.7444 0.350376 25.7377 0.346758L25.7269 0.340707L25.7268 0.340957C25.1043 0.0007826 24.3679 -0.0919808 23.5629 0.0949184L20.7487 1.75125Z" fill="url(#paint16_linear_531_2439)"/>
<path d="M16.9329 13.1833C17.2428 14.4774 17.8753 15.3993 18.7188 15.8654L18.7187 15.8656L20.7917 17.0212L19.0191 14.3462L16.9329 13.1833Z" fill="url(#paint17_linear_531_2439)"/>
<path d="M22.9809 17.2804L25.7949 15.6243C26.7535 14.7161 27.6049 13.5268 28.2753 12.2036L29.6504 8.08794C29.7718 7.37659 29.832 6.66755 29.8217 5.97834C29.8118 5.32332 29.7387 4.72632 29.6109 4.19238L28.1691 1.73499C27.4795 1.21173 26.6137 1.03418 25.6492 1.25808L22.835 2.91422C21.8764 3.82239 21.0249 5.01172 20.3546 6.33486L18.9795 10.4505C18.8581 11.1619 18.7979 11.8709 18.8083 12.5601C18.8181 13.2151 18.8912 13.8121 19.019 14.3461L20.7904 17.0191C21.4185 17.3715 22.1643 17.4698 22.9809 17.2804Z" fill="url(#paint18_linear_531_2439)"/>
<path d="M24.3966 14.6886C26.6218 13.3588 28.3891 9.85439 28.344 6.86138C28.2989 3.86838 26.4584 2.52016 24.2332 3.84997C22.008 5.17979 20.2407 8.68415 20.2858 11.6772C20.3309 14.6702 22.1714 16.0184 24.3966 14.6886ZM20.8971 11.3119C20.8589 8.77298 22.3581 5.80025 24.2457 4.67218C26.1333 3.54411 27.6945 4.68778 27.7328 7.22676C27.7711 9.76568 26.2719 12.7384 24.3842 13.8665C22.4966 14.9945 20.9353 13.8508 20.8971 11.3119Z" fill="url(#paint19_linear_531_2439)"/>
<path d="M28.1652 6.76174C28.2103 9.75475 26.443 13.2591 24.2178 14.5889C23.2513 15.1665 22.3578 15.2383 21.6521 14.8902C22.3825 15.3467 23.3466 15.3161 24.3966 14.6886C26.6218 13.3588 28.3891 9.85443 28.344 6.86143C28.3185 5.16829 27.7182 4.00211 26.7989 3.54871C27.6165 4.05968 28.1414 5.18102 28.1652 6.76174Z" fill="url(#paint20_linear_531_2439)"/>
<path d="M24.0668 4.57247C22.1792 5.70054 20.68 8.67328 20.7182 11.2122C20.74 12.6571 21.2554 13.6491 22.0431 14.0287C21.3571 13.5915 20.9172 12.6443 20.8971 11.3119C20.8589 8.77297 22.358 5.80023 24.2457 4.67216C25.0591 4.18601 25.8116 4.12269 26.408 4.41022C25.7868 4.01421 24.9639 4.03636 24.0668 4.57247Z" fill="url(#paint21_linear_531_2439)"/>
<path d="M23.8309 4.27335L23.8612 4.63124C23.6418 4.78888 23.4241 4.97335 23.214 5.17953L23.1333 4.86443C23.3598 4.6421 23.5945 4.44322 23.8309 4.27335ZM24.5424 3.8504C24.7795 3.73886 25.0158 3.65782 25.2446 3.60947L25.1735 4.0149C24.9612 4.05975 24.742 4.13492 24.522 4.23842L24.5424 3.8504ZM22.4738 5.60554L22.6024 5.86692C22.4073 6.11596 22.2205 6.38595 22.047 6.66948L21.8753 6.47042C22.0622 6.16486 22.2636 5.87391 22.4738 5.60554ZM25.9132 3.56113C26.1271 3.57741 26.333 3.62632 26.5249 3.70648L26.3612 4.10492C26.1829 4.03056 25.992 3.98514 25.7935 3.96998L25.9132 3.56113ZM21.3578 7.42868L21.5666 7.55906C21.4209 7.86648 21.2899 8.18489 21.1773 8.50535L20.9384 8.44827C21.0598 8.10291 21.2009 7.75987 21.3578 7.42868ZM27.0596 4.03935C27.2229 4.18028 27.3708 4.35152 27.4995 4.54815L27.2658 4.8862C27.1464 4.70367 27.0091 4.54472 26.8576 4.4139L27.0596 4.03935ZM20.6317 9.49474L20.8927 9.47621C20.8168 9.79967 20.7597 10.1236 20.7233 10.4388L20.449 10.5327C20.4883 10.1927 20.5498 9.84352 20.6317 9.49474ZM27.829 5.21677C27.9189 5.46343 27.9886 5.73467 28.0362 6.02294L27.7637 6.25407C27.7195 5.98676 27.6549 5.73517 27.5715 5.50641L27.829 5.21677ZM20.3961 11.5264L20.6743 11.3601L20.6745 11.376C20.679 11.6735 20.7038 11.9591 20.7481 12.2249L20.4757 12.4566C20.4279 12.1702 20.4012 11.8625 20.3964 11.5422L20.3961 11.5264ZM27.8363 7.10379L28.1144 6.9381C28.1189 7.25856 28.1015 7.5925 28.0627 7.93068L27.7884 8.02519C27.8243 7.71127 27.8405 7.40129 27.8363 7.10379ZM20.9412 12.9716C21.0248 13.1998 21.128 13.4081 21.2479 13.5906L21.0145 13.929C20.8852 13.7322 20.774 13.5077 20.6839 13.2617L20.9412 12.9716ZM27.6199 8.98757L27.8811 8.96842C27.7996 9.31682 27.6967 9.66891 27.5754 10.015L27.3363 9.95849C27.4489 9.63735 27.5443 9.31071 27.6199 8.98757ZM21.657 14.0615C21.8087 14.1918 21.9758 14.2952 22.1541 14.3691L21.9906 14.7677C21.7987 14.6881 21.6186 14.5766 21.4552 14.4364L21.657 14.0615ZM26.9478 10.9052L27.1569 11.0349C27.0004 11.366 26.8265 11.6887 26.6401 11.9939L26.4682 11.7954C26.6411 11.5121 26.8025 11.2126 26.9478 10.9052ZM22.7223 14.5025C22.9213 14.5171 23.13 14.5015 23.3427 14.4561L23.272 14.8614C23.0426 14.9104 22.8176 14.9272 22.603 14.9114L22.7223 14.5025ZM25.9134 12.5988L26.0423 12.8597C25.8319 13.129 25.6101 13.3788 25.3833 13.602L25.3021 13.2873C25.5125 13.0802 25.7182 12.8486 25.9134 12.5988ZM23.9944 14.231C24.2128 14.1278 24.4375 13.9938 24.6551 13.8368L24.6859 14.1944C24.4516 14.3633 24.2098 14.5075 23.9744 14.6187L23.9944 14.231Z" fill="url(#paint22_linear_531_2439)"/>
<path d="M21.298 11.0723C21.3317 13.3134 22.7099 14.3229 24.3761 13.3272C26.0423 12.3314 27.3657 9.70738 27.3319 7.46628C27.2981 5.22517 25.9199 4.21563 24.2538 5.21138C22.5876 6.20714 21.2642 8.83115 21.298 11.0723Z" fill="url(#paint23_linear_531_2439)"/>
<path d="M24.4266 16.6759C24.9002 16.3929 25.3586 16.0377 25.7949 15.6243L25.7886 15.2043C25.7824 14.7922 25.529 14.6065 25.2226 14.7897L23.5181 15.8083C23.2117 15.9914 22.9684 16.474 22.9745 16.8861L22.9805 17.2806C23.4427 17.1733 23.9275 16.9742 24.4266 16.6759Z" fill="url(#paint24_linear_531_2439)"/>
<path d="M29.6504 8.08805L29.377 8.0397C29.1085 7.99223 28.771 8.3173 28.6232 8.76577L27.8009 11.2604C27.6531 11.7089 27.7509 12.111 28.0194 12.1585L28.2754 12.2038C28.9289 10.9137 29.41 9.4964 29.6504 8.08805Z" fill="url(#paint25_linear_531_2439)"/>
<path d="M28.5977 4.72144C28.7563 4.98682 29.0975 4.90634 29.3597 4.54165L29.6108 4.1925C29.3448 3.08089 28.8404 2.24446 28.169 1.73511L27.9033 2.10466C27.641 2.46935 27.557 2.98008 27.7156 3.24546L28.5977 4.72144Z" fill="url(#paint26_linear_531_2439)"/>
<path d="M23.563 0.0949707C23.1008 0.202269 22.6161 0.401458 22.117 0.699711C21.6434 0.982742 21.185 1.33801 20.7487 1.75136L22.835 2.9143L25.6494 1.25804L23.563 0.0949707Z" fill="url(#paint27_linear_531_2439)"/>
<path d="M23.4074 3.74891L25.1118 2.73033C25.4182 2.54717 25.6616 2.06464 25.6554 1.65247L25.6495 1.25797C25.1872 1.36533 24.7025 1.56439 24.2034 1.86264C23.7298 2.14567 23.2713 2.50088 22.835 2.91423L22.8413 3.33419C22.8476 3.74636 23.101 3.93201 23.4074 3.74891Z" fill="url(#paint28_linear_531_2439)"/>
<path d="M18.2685 5.17209C17.6148 6.46229 17.1346 7.87963 16.8943 9.2883L18.9796 10.4507L20.3547 6.33497L18.2685 5.17209Z" fill="url(#paint29_linear_531_2439)"/>
<path d="M19.253 10.499C19.5215 10.5464 19.859 10.2214 20.0068 9.77288L20.829 7.27825C20.9769 6.82978 20.8791 6.42773 20.6106 6.38019L20.3546 6.3349C19.7011 7.62492 19.2199 9.04219 18.9795 10.4506L19.253 10.499Z" fill="url(#paint30_linear_531_2439)"/>
<path d="M20.7918 17.0212L21.0004 16.696C21.2626 16.3314 21.3467 15.8206 21.1881 15.5552L20.0323 13.8172C19.8737 13.5518 19.5325 13.6323 19.2703 13.997L19.0192 14.3462C19.2851 15.4578 20.006 16.5331 20.7918 17.0212Z" fill="url(#paint31_linear_531_2439)"/>
<defs>
<linearGradient id="paint0_linear_531_2439" x1="21.5028" y1="23.531" x2="26.0559" y2="15.6448" gradientUnits="userSpaceOnUse">
<stop stop-color="#59171D"/>
<stop offset="0.1229" stop-color="#641A21"/>
<stop offset="0.7108" stop-color="#972731"/>
<stop offset="1" stop-color="#AB2C37"/>
</linearGradient>
<linearGradient id="paint1_linear_531_2439" x1="17.7745" y1="25.2287" x2="18.989" y2="23.1252" gradientUnits="userSpaceOnUse">
<stop stop-color="#59171D"/>
<stop offset="0.1229" stop-color="#641A21"/>
<stop offset="0.7108" stop-color="#972731"/>
<stop offset="1" stop-color="#AB2C37"/>
</linearGradient>
<linearGradient id="paint2_linear_531_2439" x1="23.6045" y1="27.2842" x2="23.6045" y2="16.9438" gradientUnits="userSpaceOnUse">
<stop stop-color="#C62834"/>
<stop offset="0.4744" stop-color="#E33746"/>
<stop offset="1" stop-color="#FF4557"/>
</linearGradient>
<linearGradient id="paint3_linear_531_2439" x1="6.00063" y1="25.6851" x2="12.7659" y2="13.9673" gradientUnits="userSpaceOnUse">
<stop stop-color="#BA5C25"/>
<stop offset="0.2216" stop-color="#FFC538"/>
<stop offset="0.3753" stop-color="#FFA538"/>
<stop offset="0.5003" stop-color="#FBC23C"/>
<stop offset="0.6256" stop-color="#F8D840"/>
<stop offset="0.7058" stop-color="#F7E041"/>
<stop offset="0.7857" stop-color="#F9D53F"/>
<stop offset="0.9265" stop-color="#FDB73B"/>
<stop offset="1" stop-color="#FFA538"/>
</linearGradient>
<linearGradient id="paint4_linear_531_2439" x1="9.75534" y1="15.1207" x2="7.52427" y2="18.985" gradientUnits="userSpaceOnUse">
<stop stop-color="white"/>
<stop offset="1" stop-color="white" stop-opacity="0"/>
</linearGradient>
<linearGradient id="paint5_linear_531_2439" x1="5.19918" y1="25.6428" x2="5.19918" y2="30.1167" gradientUnits="userSpaceOnUse">
<stop stop-color="#8B451C"/>
<stop offset="1" stop-color="#8B451C" stop-opacity="0"/>
</linearGradient>
<linearGradient id="paint6_linear_531_2439" x1="10.746" y1="32.0035" x2="3.62895" y2="19.6768" gradientUnits="userSpaceOnUse">
<stop stop-color="#FFC538"/>
<stop offset="1" stop-color="#F7E041"/>
</linearGradient>
<linearGradient id="paint7_linear_531_2439" x1="14.7267" y1="27.9501" x2="8.2845" y2="21.1127" gradientUnits="userSpaceOnUse">
<stop stop-color="white"/>
<stop offset="1" stop-color="white" stop-opacity="0"/>
</linearGradient>
<linearGradient id="paint8_linear_531_2439" x1="10.5029" y1="-1.42247" x2="10.5029" y2="38.1037" gradientUnits="userSpaceOnUse">
<stop stop-color="#E37A34"/>
<stop offset="0.5493" stop-color="#FFA538"/>
<stop offset="0.9892" stop-color="#FFC538"/>
</linearGradient>
<linearGradient id="paint9_linear_531_2439" x1="10.746" y1="-1.42244" x2="10.746" y2="38.1037" gradientUnits="userSpaceOnUse">
<stop stop-color="#E37A34"/>
<stop offset="0.5493" stop-color="#FFA538"/>
<stop offset="0.9892" stop-color="#FFC538"/>
</linearGradient>
<linearGradient id="paint10_linear_531_2439" x1="7.39564" y1="26.1459" x2="11.5503" y2="18.9498" gradientUnits="userSpaceOnUse">
<stop stop-color="#E37A34"/>
<stop offset="1" stop-color="#F7E041"/>
</linearGradient>
<linearGradient id="paint11_linear_531_2439" x1="15.2689" y1="19.6947" x2="9.64559" y2="29.4347" gradientUnits="userSpaceOnUse">
<stop stop-color="#BA5C25"/>
<stop offset="1" stop-color="#FFA538"/>
</linearGradient>
<linearGradient id="paint12_linear_531_2439" x1="7.49596" y1="15.7974" x2="8.89252" y2="13.3785" gradientUnits="userSpaceOnUse">
<stop stop-color="#2F878A"/>
<stop offset="1" stop-color="#06DAAE"/>
</linearGradient>
<linearGradient id="paint13_linear_531_2439" x1="9.60763" y1="13.3352" x2="9.60763" y2="16.7075" gradientUnits="userSpaceOnUse">
<stop stop-color="#2F878A"/>
<stop offset="1" stop-color="#06DAAE"/>
</linearGradient>
<linearGradient id="paint14_linear_531_2439" x1="11.511" y1="8.97338" x2="12.1266" y2="7.90707" gradientUnits="userSpaceOnUse">
<stop stop-color="#2F878A"/>
<stop offset="1" stop-color="#06DAAE"/>
</linearGradient>
<linearGradient id="paint15_linear_531_2439" x1="10.8701" y1="16.8039" x2="10.8701" y2="8.70357" gradientUnits="userSpaceOnUse">
<stop stop-color="#06DAAE"/>
<stop offset="1" stop-color="#9BF0DF"/>
</linearGradient>
<linearGradient id="paint16_linear_531_2439" x1="18.5127" y1="12.8366" x2="24.8687" y2="1.8276" gradientUnits="userSpaceOnUse">
<stop stop-color="#00395E"/>
<stop offset="1" stop-color="#0072BC"/>
</linearGradient>
<linearGradient id="paint17_linear_531_2439" x1="20.5807" y1="12.126" x2="25.6965" y2="3.26497" gradientUnits="userSpaceOnUse">
<stop stop-color="#C5BAEB"/>
<stop offset="1" stop-color="#D7D1EB"/>
</linearGradient>
<linearGradient id="paint18_linear_531_2439" x1="24.3149" y1="17.6792" x2="24.3149" y2="0.503118" gradientUnits="userSpaceOnUse">
<stop stop-color="#0072BC"/>
<stop offset="1" stop-color="#2F97F7"/>
</linearGradient>
<linearGradient id="paint19_linear_531_2439" x1="20.3146" y1="11.7812" x2="33.4719" y2="4.06812" gradientUnits="userSpaceOnUse">
<stop stop-color="#00395E"/>
<stop offset="1" stop-color="#0072BC"/>
</linearGradient>
<linearGradient id="paint20_linear_531_2439" x1="24.4797" y1="12.2509" x2="26.9441" y2="7.82814" gradientUnits="userSpaceOnUse">
<stop stop-color="#00395E"/>
<stop offset="1" stop-color="#0072BC"/>
</linearGradient>
<linearGradient id="paint21_linear_531_2439" x1="25.0602" y1="5.16362" x2="22.7541" y2="9.30216" gradientUnits="userSpaceOnUse">
<stop stop-color="#00395E"/>
<stop offset="1" stop-color="#0072BC"/>
</linearGradient>
<linearGradient id="paint22_linear_531_2439" x1="24.1173" y1="4.19781" x2="28.7222" y2="11.8995" gradientUnits="userSpaceOnUse">
<stop stop-color="#F2EFFA"/>
<stop offset="1" stop-color="white"/>
</linearGradient>
<linearGradient id="paint23_linear_531_2439" x1="24.315" y1="13.0232" x2="24.315" y2="4.12786" gradientUnits="userSpaceOnUse">
<stop stop-color="#F2EFFA"/>
<stop offset="1" stop-color="white"/>
</linearGradient>
<linearGradient id="paint24_linear_531_2439" x1="24.3847" y1="16.594" x2="24.3847" y2="0.387904" gradientUnits="userSpaceOnUse">
<stop stop-color="#F2EFFA"/>
<stop offset="1" stop-color="white"/>
</linearGradient>
<linearGradient id="paint25_linear_531_2439" x1="28.6912" y1="16.594" x2="28.6912" y2="0.387936" gradientUnits="userSpaceOnUse">
<stop stop-color="#F2EFFA"/>
<stop offset="1" stop-color="white"/>
</linearGradient>
<linearGradient id="paint26_linear_531_2439" x1="28.6232" y1="16.594" x2="28.6232" y2="0.387949" gradientUnits="userSpaceOnUse">
<stop stop-color="#F2EFFA"/>
<stop offset="1" stop-color="white"/>
</linearGradient>
<linearGradient id="paint27_linear_531_2439" x1="18.8122" y1="9.103" x2="23.0986" y2="1.67875" gradientUnits="userSpaceOnUse">
<stop stop-color="#C5BAEB"/>
<stop offset="1" stop-color="#D7D1EB"/>
</linearGradient>
<linearGradient id="paint28_linear_531_2439" x1="24.2453" y1="16.594" x2="24.2453" y2="0.38791" gradientUnits="userSpaceOnUse">
<stop stop-color="#F2EFFA"/>
<stop offset="1" stop-color="white"/>
</linearGradient>
<linearGradient id="paint29_linear_531_2439" x1="17.4789" y1="9.79479" x2="22.2748" y2="1.48794" gradientUnits="userSpaceOnUse">
<stop stop-color="#C5BAEB"/>
<stop offset="1" stop-color="#D7D1EB"/>
</linearGradient>
<linearGradient id="paint30_linear_531_2439" x1="19.9388" y1="16.594" x2="19.9388" y2="0.387937" gradientUnits="userSpaceOnUse">
<stop stop-color="#F2EFFA"/>
<stop offset="1" stop-color="white"/>
</linearGradient>
<linearGradient id="paint31_linear_531_2439" x1="20.1436" y1="16.594" x2="20.1436" y2="0.387864" gradientUnits="userSpaceOnUse">
<stop stop-color="#F2EFFA"/>
<stop offset="1" stop-color="white"/>
</linearGradient>
</defs>
</svg>
