<svg width="33" height="32" viewBox="0 0 33 32" fill="none" xmlns="http://www.w3.org/2000/svg">
<path d="M25.8248 8.83296L23.2583 7.35121L22.6741 4.85602L20.1023 3.37239L20.1026 3.37352C19.9413 3.27264 19.7258 3.28702 19.4965 3.43439L16.9353 5.08064L14.9372 4.09152C14.6286 3.93871 14.1888 4.19264 13.8801 4.70183L11.882 7.99821L9.32089 9.30927C8.92527 9.51177 8.56945 10.0619 8.4657 10.6315L7.79383 14.319L5.64783 17.4294C5.31633 17.9099 5.18045 18.5461 5.32114 18.9585L6.23208 21.6285L5.32114 25.3503C5.18858 25.892 5.3017 26.3485 5.59245 26.4812L5.59195 26.4811L7.95814 27.8473L8.46564 30.0465C8.51283 30.251 8.61252 30.3905 8.74402 30.4588L8.74308 30.4593L11.3226 31.948L25.8248 8.83296Z" fill="url(#paint0_linear_531_2529)"/>
<path d="M22.8487 5.60208L22.6741 4.85596L20.1023 3.37233L20.1026 3.37346C19.9413 3.27258 19.7257 3.28696 19.4964 3.43433L16.9353 5.08058L19.5221 6.57321L22.8487 5.60208Z" fill="url(#paint1_linear_531_2529)"/>
<path d="M11.3226 31.948L10.3805 28.6275L7.95807 27.8472L8.46557 30.0464C8.51276 30.251 8.61244 30.3905 8.74394 30.4588L8.74301 30.4593L11.3226 31.948Z" fill="url(#paint2_linear_531_2529)"/>
<path d="M6.23211 21.6284L5.32117 25.3503C5.18861 25.892 5.30174 26.3484 5.59249 26.4812L5.59199 26.4811L7.95817 27.8472L8.81905 23.121L6.23211 21.6284Z" fill="url(#paint3_linear_531_2529)"/>
<path d="M13.8801 4.70173L11.882 7.99811L14.4688 9.49073L19.5221 6.57317L16.9353 5.08055L14.9371 4.09142C14.6285 3.93861 14.1887 4.19255 13.8801 4.70173Z" fill="url(#paint4_linear_531_2529)"/>
<path d="M13.8801 4.70173L11.882 7.99811L14.4688 9.49073L19.5221 6.57317L16.9353 5.08055L14.9371 4.09142C14.6285 3.93861 14.1887 4.19255 13.8801 4.70173Z" fill="url(#paint5_linear_531_2529)"/>
<path d="M14.4688 9.49073L11.8819 7.99811L9.32082 9.30917C8.9252 9.51167 8.56939 10.0618 8.46564 10.6314L7.79376 14.3189L10.3806 15.8115L14.4688 9.49073Z" fill="url(#paint6_linear_531_2529)"/>
<path d="M14.4688 9.49073L11.8819 7.99811L9.32082 9.30917C8.9252 9.51167 8.56939 10.0618 8.46564 10.6314L7.79376 14.3189L10.3806 15.8115L14.4688 9.49073Z" fill="url(#paint7_linear_531_2529)"/>
<path d="M5.32123 18.9585L6.23217 21.6285L8.81898 23.1212L10.3805 15.8116L7.79373 14.319L5.64785 17.4294C5.31642 17.9099 5.18048 18.5461 5.32123 18.9585Z" fill="url(#paint8_linear_531_2529)"/>
<path d="M5.32123 18.9585L6.23217 21.6285L8.81898 23.1212L10.3805 15.8116L7.79373 14.319L5.64785 17.4294C5.31642 17.9099 5.18048 18.5461 5.32123 18.9585Z" fill="url(#paint9_linear_531_2529)"/>
<path d="M17.524 5.58405L19.5221 6.57324L22.0833 4.92699C22.4789 4.67267 22.8347 4.81192 22.9385 5.26167L23.6103 8.17324L25.7562 8.80592C26.0876 8.90367 26.2236 9.38292 26.0829 9.9578L25.1719 13.6797L26.0829 16.3497C26.2236 16.7621 26.0877 17.3983 25.7562 17.8787L23.6103 20.9892L22.9385 24.6767C22.8346 25.2462 22.4788 25.7964 22.0833 25.9989L19.5221 27.3099L17.524 30.6063C17.2154 31.1155 16.7756 31.3694 16.4669 31.2166L14.4688 30.2274L11.9076 31.8737C11.512 32.128 11.1562 31.9887 11.0525 31.539L10.3806 28.6274L8.23471 27.9947C7.90327 27.897 7.76733 27.4177 7.90808 26.8429L8.81902 23.121L7.90808 20.451C7.76733 20.0386 7.90327 19.4024 8.23471 18.922L10.3806 15.8114L11.0525 12.124C11.1563 11.5544 11.5121 11.0044 11.9076 10.8018L14.4688 9.49074L16.4669 6.19436C16.7756 5.68517 17.2154 5.43124 17.524 5.58405Z" fill="url(#paint10_linear_531_2529)"/>
<path d="M22.0833 4.92692L19.5222 6.57317L18.645 6.06705L18.4388 6.1598L18.3284 5.8843L16.9353 5.08048L15.6799 4.45898L14.6075 8.37186L9.8186 11.7477L13.4236 13.9138L12.3795 20.7781L16.5232 15.1269L20.6669 15.9935L19.6228 10.3347L22.7245 4.88967C22.5602 4.76305 22.3295 4.76867 22.0833 4.92692Z" fill="url(#paint11_linear_531_2529)"/>
<path d="M9.40638 13.744L10.3879 16.192L12.8416 15.0884L10.9945 18.331L11.5294 21.2303L9.40638 20.7863L7.28338 23.6818L7.81832 20.1648L5.97125 19.055L8.42488 17.3253L9.40638 13.744Z" fill="url(#paint12_linear_531_2529)"/>
<path d="M25.7563 8.80595L23.6104 8.17326L23.259 6.65057L22.6296 8.9472L20.176 10.6768L22.023 11.7866L21.4881 15.3036L23.6112 12.4082L25.3921 12.7806L25.5796 12.0144L25.1992 9.95289L25.8338 8.83876C25.8092 8.82557 25.7837 8.81401 25.7563 8.80595Z" fill="url(#paint13_linear_531_2529)"/>
<path d="M24.7411 19.3503V16.9637C24.7411 16.0776 24.2004 15.6689 23.5358 16.0525C22.8712 16.4362 22.3306 17.4693 22.3306 18.3554V19.417L21.0761 18.0985C20.8319 17.8419 20.4707 17.8222 20.0852 18.0448L20.0784 18.0487C19.4369 18.4192 18.9055 19.3589 18.8133 20.2339C18.7556 19.4522 18.2397 19.1104 17.6136 19.4717L17.5989 19.4802C17.1778 19.7234 16.8069 20.2274 16.5914 20.7894C16.5772 20.7674 16.5625 20.7459 16.5467 20.726C16.3294 20.4518 15.9786 20.4157 15.6084 20.6295C15.1064 20.9193 14.6639 21.602 14.5073 22.3282L14.028 24.5495L13.6086 23.0579C13.4243 22.4024 12.8971 22.1949 12.2967 22.5415C11.7037 22.8839 11.1785 23.6908 10.9898 24.5495L10.5537 26.5355L10.0924 24.8869C9.93781 24.3345 9.49431 24.1595 8.98893 24.4513L8.8975 24.5041C8.70881 24.613 8.52537 24.7812 8.36193 24.9892L7.90818 26.843C7.86062 27.0373 7.84537 27.2202 7.85787 27.3816L7.97243 27.7804C8.03643 27.8869 8.1245 27.9624 8.23481 27.9949L10.3807 28.6275L11.0526 31.5391C11.056 31.554 11.0604 31.5677 11.0644 31.5819C11.4477 31.141 11.7544 30.5359 11.893 29.9045L12.2614 28.2278L12.6137 29.4704C12.8148 30.1795 13.3872 30.4035 14.038 30.0278C14.6873 29.6529 15.2592 28.7698 15.4611 27.8304L16.3937 23.491V27.0607C16.3937 27.9468 16.9344 28.3555 17.5989 27.9719L17.6137 27.9634C18.2259 27.6099 18.7318 26.7055 18.8079 25.8725C18.8839 26.6179 19.3906 26.9374 20.0029 26.5839C20.6675 26.2002 21.2081 25.1671 21.2081 24.281V23.2144L22.4705 24.5352C22.5956 24.6661 22.7513 24.7345 22.9251 24.7407C22.9297 24.7194 22.9346 24.6982 22.9385 24.6768L23.6104 20.9894L24.7411 19.3503Z" fill="url(#paint14_linear_531_2529)"/>
<path d="M24.7273 19.4211L25.7954 13.8777L24.304 13.0154C24.0953 12.9051 23.8275 12.9208 23.5358 13.0892C22.8712 13.4729 22.3305 14.506 22.3305 15.3921V15.8262L20.9307 15.0183C20.9276 15.0164 20.9245 15.0147 20.9213 15.0129L20.9098 15.0063L20.9096 15.0068C20.6807 14.8814 20.3907 14.9051 20.0851 15.0815L20.0783 15.0854C19.5646 15.382 19.1222 16.0437 18.9187 16.7449L18.4115 16.4518L18.4114 16.452C18.1987 16.3236 17.9193 16.3319 17.6135 16.5084L17.5987 16.5169C17.1962 16.7494 16.8399 17.2204 16.621 17.7524L16.366 17.6052L16.366 17.6054C16.1575 17.486 15.8885 17.5044 15.6082 17.6661C15.1062 17.9559 14.6638 18.6386 14.5072 19.3647L14.3354 20.1606L13.2118 19.5119L13.2113 19.5127C12.9653 19.3636 12.6434 19.3778 12.2966 19.5781C11.7035 19.9204 11.1783 20.7274 10.9897 21.5861L10.8812 22.0802L9.74334 21.4232C9.74284 21.4229 9.74234 21.4226 9.74178 21.4223L9.74053 21.4216V21.4217C9.53609 21.3075 9.27215 21.3242 8.98878 21.4878L8.89734 21.5406C8.52672 21.7546 8.17578 22.1961 7.95847 22.7219C7.74122 23.2475 7.68053 23.8017 7.79622 24.2041L9.05065 28.5702C9.13784 28.8738 9.2939 29.0872 9.4949 29.2025L9.49484 29.2031L11.045 30.0962L13.0776 27.1553L14.5406 27.9996L16.8013 25.0657L18.3206 25.9427L19.281 23.7158L20.7048 24.5421L22.6655 21.7147L24.123 22.5582L24.6261 19.9468C24.6758 19.7721 24.7102 19.5954 24.7273 19.4211Z" fill="url(#paint15_linear_531_2529)"/>
<path d="M24.1229 22.5583L22.6655 21.7148V20.6481L24.1229 22.5583Z" fill="#C5BAEB"/>
<path d="M20.7047 24.5422L20.2294 24.2664L20.2951 23.3862L20.7047 24.5422Z" fill="#C5BAEB"/>
<path d="M18.3206 25.9429L16.8014 25.0658L17.9943 20.9686L18.3206 25.9429Z" fill="#C5BAEB"/>
<path d="M14.5406 27.9997L13.0776 27.1554L13.8091 25.7826L14.5406 27.9997Z" fill="#C5BAEB"/>
<path d="M25.7954 13.8777L24.304 13.0154C24.0953 12.9051 23.8275 12.9208 23.5358 13.0892C22.8712 13.4729 22.3305 14.506 22.3305 15.3921V15.8262L24.0309 17.7677L25.7954 13.8777Z" fill="url(#paint16_linear_531_2529)"/>
<path d="M20.2315 18.5658L22.3305 15.8262L20.9306 15.0183C20.9276 15.0164 20.9245 15.0147 20.9213 15.0129L20.9098 15.0063L20.9096 15.0068C20.6807 14.8814 20.3907 14.905 20.0851 15.0814L20.0783 15.0854C19.5646 15.3819 19.1221 16.0437 18.9186 16.7448L19.9332 17.3306L20.2315 18.5658Z" fill="url(#paint17_linear_531_2529)"/>
<path d="M18.4115 16.452C18.1988 16.3236 17.9194 16.3319 17.6135 16.5085L17.5988 16.5169C17.1962 16.7494 16.84 17.2205 16.621 17.7525L17.869 18.473L18.1047 18.9861L19.9333 17.3306L18.9187 16.7448L18.4115 16.4518L18.4115 16.452Z" fill="url(#paint18_linear_531_2529)"/>
<path d="M16.366 17.6055C16.1575 17.4861 15.8885 17.5045 15.6082 17.6662C15.1062 17.956 14.6638 18.6387 14.5071 19.3648L14.3354 20.1607L14.722 20.3839L15.4556 22.7813L17.8691 18.473L16.6211 17.7525L16.3661 17.6053L16.366 17.6055Z" fill="url(#paint19_linear_531_2529)"/>
<path d="M11.9789 24.8954L14.722 20.3839L14.3355 20.1607L13.2119 19.5119L13.2114 19.5128C12.9654 19.3636 12.6435 19.3779 12.2967 19.5781C11.7036 19.9205 11.1784 20.7274 10.9897 21.5862L10.8812 22.0803L11.2488 22.2924L11.9789 24.8954Z" fill="url(#paint20_linear_531_2529)"/>
<path d="M25.0471 13.9616C24.3826 14.3453 23.8419 15.3784 23.8419 16.2645V17.3261L22.5874 16.0076C22.3431 15.7509 21.982 15.7313 21.5964 15.9539L21.5896 15.9578C20.9481 16.3282 20.4167 17.2679 20.3245 18.1429C20.2667 17.3614 19.7509 17.0194 19.1248 17.3809L19.1101 17.3894C18.6889 17.6325 18.3181 18.1366 18.1026 18.6986C18.0884 18.6764 18.0737 18.655 18.0579 18.6351C17.8405 18.3609 17.4898 18.3249 17.1195 18.5386C16.6175 18.8284 16.1751 19.5111 16.0185 20.2372L15.5392 22.4586L15.1197 20.9669C14.9355 20.3115 14.4083 20.104 13.8079 20.4506C13.2149 20.793 12.6897 21.5999 12.501 22.4587L12.0649 24.4446L11.6036 22.796C11.4491 22.2436 11.0056 22.0686 10.5001 22.3604L10.4087 22.4132C10.038 22.6271 9.68711 23.0687 9.4698 23.5944C9.25255 24.12 9.19186 24.6742 9.30761 25.0767L10.5621 29.4427C10.7644 30.1474 11.3361 30.3692 11.9846 29.9948C12.6289 29.6228 13.1995 28.7461 13.4042 27.8135L13.7726 26.1368L14.1249 27.3794C14.326 28.0886 14.8984 28.3125 15.5492 27.9368C16.1985 27.5619 16.7704 26.6789 16.9723 25.7394L17.9049 21.4001V24.9697C17.9049 25.8558 18.4456 26.2646 19.1102 25.8809L19.1249 25.8724C19.7371 25.5189 20.243 24.6146 20.3192 23.7815C20.3952 24.5269 20.9019 24.8464 21.5142 24.4929C22.1788 24.1092 22.7195 23.0761 22.7195 22.19V21.1233L23.9819 22.4442C24.2261 22.6997 24.5869 22.7189 24.9717 22.4967C25.6779 22.0889 26.2524 20.9912 26.2524 20.0496V14.8728C26.2524 13.9866 25.7117 13.5779 25.0471 13.9616Z" fill="#F2EDFF"/>
<path d="M17.633 20.0115L16.3841 25.8223C16.266 26.372 15.9291 26.8922 15.5491 27.1116C15.1685 27.3313 14.8311 27.1993 14.7135 26.7846L13.7819 23.4994L12.8175 27.8898C12.6974 28.4364 12.3621 28.9516 11.9846 29.1696C11.605 29.3888 11.2684 29.2581 11.1499 28.8458L9.89545 24.4796C9.78064 24.0801 10.0409 23.4506 10.4086 23.2383L10.5001 23.1854C10.7348 23.0499 10.9426 23.132 11.0144 23.3885L12.0521 27.0978L13.0878 22.3822C13.1915 21.9096 13.4814 21.4642 13.8079 21.2757C14.1375 21.0854 14.4296 21.2003 14.5308 21.5602L15.5338 25.1268L16.6064 20.1554C16.6793 19.8178 16.8863 19.4984 17.1196 19.3637C17.487 19.1516 17.7472 19.4799 17.633 20.0115Z" fill="url(#paint21_linear_531_2529)"/>
<path d="M19.1101 18.2145L19.1248 18.206C19.4487 18.019 19.7112 18.2175 19.7112 18.6493V23.9268C19.7112 24.3586 19.4486 24.8602 19.1248 25.0472L19.1101 25.0557C18.7862 25.2427 18.5237 25.0442 18.5237 24.6124V19.3349C18.5237 18.9031 18.7862 18.4014 19.1101 18.2145Z" fill="url(#paint22_linear_531_2529)"/>
<path d="M25.6335 15.2301V20.4069C25.6335 20.8943 25.3371 21.4605 24.9716 21.6716C24.7735 21.7859 24.5858 21.776 24.46 21.6444L22.1005 19.1756V22.5473C22.1005 22.9791 21.8379 23.4808 21.5141 23.6677C21.1902 23.8547 20.9277 23.6562 20.9277 23.2244V18.0476C20.9277 17.5602 21.2241 16.994 21.5897 16.7829L21.5965 16.779C21.7949 16.6644 21.9829 16.6746 22.1086 16.8068L24.4608 19.2789V15.9072C24.4608 15.4754 24.7234 14.9738 25.0472 14.7868C25.3709 14.5998 25.6335 14.7983 25.6335 15.2301Z" fill="url(#paint23_linear_531_2529)"/>
<path d="M17.2109 0L19.1265 4.77794L23.9155 2.624L20.3105 8.95275L21.3545 14.6114L17.2109 13.7449L13.0672 19.3962L14.1113 12.5318L10.5063 10.3658L15.2952 6.98994L17.2109 0Z" fill="url(#paint24_linear_531_2529)"/>
<path d="M19.1265 4.77796L18.179 10.257L23.9155 2.62402L19.1265 4.77796Z" fill="url(#paint25_linear_531_2529)"/>
<path d="M17.2109 0L18.179 10.257L15.2952 6.98994L17.2109 0Z" fill="url(#paint26_linear_531_2529)"/>
<path d="M18.179 10.257L10.5063 10.3658L14.1113 12.5318L18.179 10.257Z" fill="url(#paint27_linear_531_2529)"/>
<path d="M13.0672 19.3962L18.179 10.257L17.2109 13.745L13.0672 19.3962Z" fill="url(#paint28_linear_531_2529)"/>
<path d="M18.179 10.257L21.3545 14.6114L20.3105 8.95276L18.179 10.257Z" fill="url(#paint29_linear_531_2529)"/>
<path d="M10.0941 12.362L11.0756 14.81L13.5292 13.7064L11.6822 16.949L12.2171 19.8483L10.0941 19.4043L7.97106 22.2997L8.506 18.7828L6.659 17.673L9.11262 15.9433L10.0941 12.362Z" fill="url(#paint30_linear_531_2529)"/>
<path d="M11.0756 14.81L10.5901 17.6172L13.5293 13.7064L11.0756 14.81Z" fill="url(#paint31_linear_531_2529)"/>
<path d="M10.0941 12.362L10.5901 17.6172L9.11261 15.9433L10.0941 12.362Z" fill="url(#paint32_linear_531_2529)"/>
<path d="M10.5901 17.6172L6.659 17.673L8.506 18.7828L10.5901 17.6172Z" fill="url(#paint33_linear_531_2529)"/>
<path d="M7.97107 22.2997L10.5901 17.6172L10.0941 19.4043L7.97107 22.2997Z" fill="url(#paint34_linear_531_2529)"/>
<path d="M10.5901 17.6172L12.2171 19.8483L11.6822 16.949L10.5901 17.6172Z" fill="url(#paint35_linear_531_2529)"/>
<path d="M24.2988 3.98389L25.2803 6.43189L27.734 5.32832L25.8869 8.57089L26.4218 11.4702L24.2988 11.0262L22.1758 13.9216L22.7107 10.4046L20.8636 9.29482L23.3173 7.5652L24.2988 3.98389Z" fill="url(#paint36_linear_531_2529)"/>
<path d="M25.2803 6.43187L24.7949 9.23912L27.734 5.32831L25.2803 6.43187Z" fill="url(#paint37_linear_531_2529)"/>
<path d="M24.2988 3.98389L24.7948 9.23914L23.3173 7.5652L24.2988 3.98389Z" fill="url(#paint38_linear_531_2529)"/>
<path d="M24.7948 9.23914L20.8636 9.29482L22.7107 10.4046L24.7948 9.23914Z" fill="url(#paint39_linear_531_2529)"/>
<path d="M22.1758 13.9216L24.7948 9.23914L24.2988 11.0262L22.1758 13.9216Z" fill="url(#paint40_linear_531_2529)"/>
<path d="M24.7949 9.23911L26.4219 11.4702L25.8869 8.57086L24.7949 9.23911Z" fill="url(#paint41_linear_531_2529)"/>
<defs>
<linearGradient id="paint0_linear_531_2529" x1="15.5455" y1="33.3556" x2="15.5455" y2="-13.518" gradientUnits="userSpaceOnUse">
<stop stop-color="#1D182F"/>
<stop offset="0.1795" stop-color="#292243"/>
<stop offset="0.5463" stop-color="#493D76"/>
<stop offset="1" stop-color="#7662BD"/>
</linearGradient>
<linearGradient id="paint1_linear_531_2529" x1="17.9253" y1="8.74783" x2="21.3649" y2="2.79015" gradientUnits="userSpaceOnUse">
<stop stop-color="#0F0C18"/>
<stop offset="1" stop-color="#0F0C18" stop-opacity="0"/>
</linearGradient>
<linearGradient id="paint2_linear_531_2529" x1="9.64038" y1="28.1982" x2="9.64038" y2="32.3452" gradientUnits="userSpaceOnUse">
<stop stop-color="#0F0C18"/>
<stop offset="1" stop-color="#0F0C18" stop-opacity="0"/>
</linearGradient>
<linearGradient id="paint3_linear_531_2529" x1="5.89905" y1="26.8095" x2="7.6253" y2="23.8195" gradientUnits="userSpaceOnUse">
<stop stop-color="#0F0C18"/>
<stop offset="1" stop-color="#0F0C18" stop-opacity="0"/>
</linearGradient>
<linearGradient id="paint4_linear_531_2529" x1="13.7001" y1="10.7532" x2="17.1794" y2="4.72686" gradientUnits="userSpaceOnUse">
<stop stop-color="#0F0C18"/>
<stop offset="1" stop-color="#0F0C18" stop-opacity="0"/>
</linearGradient>
<linearGradient id="paint5_linear_531_2529" x1="14.9048" y1="8.66655" x2="18.3841" y2="2.64017" gradientUnits="userSpaceOnUse">
<stop stop-color="#594A8E" stop-opacity="0"/>
<stop offset="0.4701" stop-color="#594A8E" stop-opacity="0.89"/>
<stop offset="0.5279" stop-color="#594A8E"/>
<stop offset="0.5968" stop-color="#594A8E" stop-opacity="0.854"/>
<stop offset="1" stop-color="#594A8E" stop-opacity="0"/>
</linearGradient>
<linearGradient id="paint6_linear_531_2529" x1="6.38007" y1="18.7457" x2="11.9723" y2="9.05961" gradientUnits="userSpaceOnUse">
<stop stop-color="#0F0C18"/>
<stop offset="1" stop-color="#0F0C18" stop-opacity="0"/>
</linearGradient>
<linearGradient id="paint7_linear_531_2529" x1="8.93482" y1="14.3207" x2="12.6016" y2="7.96973" gradientUnits="userSpaceOnUse">
<stop stop-color="#594A8E" stop-opacity="0"/>
<stop offset="0.4701" stop-color="#594A8E" stop-opacity="0.89"/>
<stop offset="0.5279" stop-color="#594A8E"/>
<stop offset="0.5968" stop-color="#594A8E" stop-opacity="0.854"/>
<stop offset="1" stop-color="#594A8E" stop-opacity="0"/>
</linearGradient>
<linearGradient id="paint8_linear_531_2529" x1="6.53954" y1="21.4705" x2="9.41735" y2="16.4859" gradientUnits="userSpaceOnUse">
<stop stop-color="#0F0C18"/>
<stop offset="1" stop-color="#0F0C18" stop-opacity="0"/>
</linearGradient>
<linearGradient id="paint9_linear_531_2529" x1="6.02698" y1="22.3582" x2="8.90485" y2="17.3736" gradientUnits="userSpaceOnUse">
<stop stop-color="#594A8E" stop-opacity="0"/>
<stop offset="0.4701" stop-color="#594A8E" stop-opacity="0.89"/>
<stop offset="0.5279" stop-color="#594A8E"/>
<stop offset="0.5968" stop-color="#594A8E" stop-opacity="0.854"/>
<stop offset="1" stop-color="#594A8E" stop-opacity="0"/>
</linearGradient>
<linearGradient id="paint10_linear_531_2529" x1="16.9955" y1="33.8186" x2="0.485252" y2="5.22288" gradientUnits="userSpaceOnUse">
<stop stop-color="#43386B"/>
<stop offset="0.0815" stop-color="#453A6E"/>
<stop offset="1" stop-color="#594A8E"/>
</linearGradient>
<linearGradient id="paint11_linear_531_2529" x1="16.2715" y1="23.7907" x2="16.2715" y2="0.603922" gradientUnits="userSpaceOnUse">
<stop stop-color="#1E1B28"/>
<stop offset="1" stop-color="#1E1B28" stop-opacity="0"/>
</linearGradient>
<linearGradient id="paint12_linear_531_2529" x1="9.40642" y1="24.0693" x2="4.04492" y2="14.7832" gradientUnits="userSpaceOnUse">
<stop stop-color="#1E1B28"/>
<stop offset="1" stop-color="#1E1B28" stop-opacity="0"/>
</linearGradient>
<linearGradient id="paint13_linear_531_2529" x1="23.0049" y1="16.901" x2="23.0049" y2="4.60639" gradientUnits="userSpaceOnUse">
<stop stop-color="#1E1B28"/>
<stop offset="1" stop-color="#1E1B28" stop-opacity="0"/>
</linearGradient>
<linearGradient id="paint14_linear_531_2529" x1="17.5031" y1="24.1426" x2="20.4556" y2="29.2565" gradientUnits="userSpaceOnUse">
<stop stop-color="#1E1B28"/>
<stop offset="1" stop-color="#1E1B28" stop-opacity="0"/>
</linearGradient>
<linearGradient id="paint15_linear_531_2529" x1="13.4381" y1="27.1212" x2="14.1795" y2="25.837" gradientUnits="userSpaceOnUse">
<stop stop-color="#C9BAEC"/>
<stop offset="0.3503" stop-color="#D9CDF3"/>
<stop offset="1" stop-color="#F3EDFF"/>
</linearGradient>
<linearGradient id="paint16_linear_531_2529" x1="23.7953" y1="15.1489" x2="24.4258" y2="14.0568" gradientUnits="userSpaceOnUse">
<stop stop-color="#C9BAEC"/>
<stop offset="0.3503" stop-color="#D9CDF3"/>
<stop offset="1" stop-color="#F3EDFF"/>
</linearGradient>
<linearGradient id="paint17_linear_531_2529" x1="20.3611" y1="16.6425" x2="20.8685" y2="15.7636" gradientUnits="userSpaceOnUse">
<stop stop-color="#C9BAEC"/>
<stop offset="0.3503" stop-color="#D9CDF3"/>
<stop offset="1" stop-color="#F3EDFF"/>
</linearGradient>
<linearGradient id="paint18_linear_531_2529" x1="18.1896" y1="17.6641" x2="18.5378" y2="17.061" gradientUnits="userSpaceOnUse">
<stop stop-color="#C9BAEC"/>
<stop offset="0.3503" stop-color="#D9CDF3"/>
<stop offset="1" stop-color="#F3EDFF"/>
</linearGradient>
<linearGradient id="paint19_linear_531_2529" x1="15.5456" y1="19.9501" x2="16.2778" y2="18.682" gradientUnits="userSpaceOnUse">
<stop stop-color="#C9BAEC"/>
<stop offset="0.3503" stop-color="#D9CDF3"/>
<stop offset="1" stop-color="#F3EDFF"/>
</linearGradient>
<linearGradient id="paint20_linear_531_2529" x1="12.2047" y1="21.9436" x2="12.9875" y2="20.5879" gradientUnits="userSpaceOnUse">
<stop stop-color="#C9BAEC"/>
<stop offset="0.3503" stop-color="#D9CDF3"/>
<stop offset="1" stop-color="#F3EDFF"/>
</linearGradient>
<linearGradient id="paint21_linear_531_2529" x1="16.6509" y1="28.1276" x2="12.6219" y2="21.1492" gradientUnits="userSpaceOnUse">
<stop stop-color="#C62834"/>
<stop offset="0.4744" stop-color="#E33746"/>
<stop offset="1" stop-color="#FF4557"/>
</linearGradient>
<linearGradient id="paint22_linear_531_2529" x1="21.5218" y1="25.7952" x2="17.3197" y2="18.517" gradientUnits="userSpaceOnUse">
<stop stop-color="#C62834"/>
<stop offset="0.4744" stop-color="#E33746"/>
<stop offset="1" stop-color="#FF4557"/>
</linearGradient>
<linearGradient id="paint23_linear_531_2529" x1="25.7164" y1="23.4463" x2="21.6347" y2="16.3765" gradientUnits="userSpaceOnUse">
<stop stop-color="#C62834"/>
<stop offset="0.4744" stop-color="#E33746"/>
<stop offset="1" stop-color="#FF4557"/>
</linearGradient>
<linearGradient id="paint24_linear_531_2529" x1="17.2109" y1="20.148" x2="6.74654" y2="2.02371" gradientUnits="userSpaceOnUse">
<stop stop-color="#FFE026"/>
<stop offset="1" stop-color="#FFF2B0"/>
</linearGradient>
<linearGradient id="paint25_linear_531_2529" x1="13.1973" y1="4.66027" x2="21.4596" y2="6.53402" gradientUnits="userSpaceOnUse">
<stop stop-color="#FF7B2A"/>
<stop offset="1" stop-color="#FFC51E"/>
</linearGradient>
<linearGradient id="paint26_linear_531_2529" x1="16.303" y1="11.8715" x2="17.5999" y2="2.16875" gradientUnits="userSpaceOnUse">
<stop stop-color="#FF7B2A"/>
<stop offset="0.3616" stop-color="#FF9B25"/>
<stop offset="0.77" stop-color="#FFBA20"/>
<stop offset="1" stop-color="#FFC51E"/>
</linearGradient>
<linearGradient id="paint27_linear_531_2529" x1="16.7541" y1="7.63927" x2="12.1772" y2="12.711" gradientUnits="userSpaceOnUse">
<stop stop-color="#FF7B2A"/>
<stop offset="1" stop-color="#FFC51E"/>
</linearGradient>
<linearGradient id="paint28_linear_531_2529" x1="13.6323" y1="19.9721" x2="16.8026" y2="12.8151" gradientUnits="userSpaceOnUse">
<stop stop-color="#FF7B2A"/>
<stop offset="1" stop-color="#FFC51E"/>
</linearGradient>
<linearGradient id="paint29_linear_531_2529" x1="17.1597" y1="15.602" x2="21.6268" y2="10.1742" gradientUnits="userSpaceOnUse">
<stop stop-color="#FF7B2A"/>
<stop offset="1" stop-color="#FFC51E"/>
</linearGradient>
<linearGradient id="paint30_linear_531_2529" x1="10.0941" y1="22.6871" x2="4.73263" y2="13.401" gradientUnits="userSpaceOnUse">
<stop stop-color="#FFE026"/>
<stop offset="1" stop-color="#FFF2B0"/>
</linearGradient>
<linearGradient id="paint31_linear_531_2529" x1="8.03777" y1="14.7497" x2="12.271" y2="15.7097" gradientUnits="userSpaceOnUse">
<stop stop-color="#FF7B2A"/>
<stop offset="1" stop-color="#FFC51E"/>
</linearGradient>
<linearGradient id="paint32_linear_531_2529" x1="9.62892" y1="18.4444" x2="10.2934" y2="13.4732" gradientUnits="userSpaceOnUse">
<stop stop-color="#FF7B2A"/>
<stop offset="0.3616" stop-color="#FF9B25"/>
<stop offset="0.77" stop-color="#FFBA20"/>
<stop offset="1" stop-color="#FFC51E"/>
</linearGradient>
<linearGradient id="paint33_linear_531_2529" x1="9.86006" y1="16.2761" x2="7.51506" y2="18.8746" gradientUnits="userSpaceOnUse">
<stop stop-color="#FF7B2A"/>
<stop offset="1" stop-color="#FFC51E"/>
</linearGradient>
<linearGradient id="paint34_linear_531_2529" x1="8.26063" y1="22.5949" x2="9.88494" y2="18.9279" gradientUnits="userSpaceOnUse">
<stop stop-color="#FF7B2A"/>
<stop offset="1" stop-color="#FFC51E"/>
</linearGradient>
<linearGradient id="paint35_linear_531_2529" x1="10.0679" y1="20.3558" x2="12.3567" y2="17.5748" gradientUnits="userSpaceOnUse">
<stop stop-color="#FF7B2A"/>
<stop offset="1" stop-color="#FFC51E"/>
</linearGradient>
<linearGradient id="paint36_linear_531_2529" x1="24.2988" y1="14.3089" x2="18.9373" y2="5.02277" gradientUnits="userSpaceOnUse">
<stop stop-color="#FFE026"/>
<stop offset="1" stop-color="#FFF2B0"/>
</linearGradient>
<linearGradient id="paint37_linear_531_2529" x1="22.2424" y1="6.37156" x2="26.4757" y2="7.33162" gradientUnits="userSpaceOnUse">
<stop stop-color="#FF7B2A"/>
<stop offset="1" stop-color="#FFC51E"/>
</linearGradient>
<linearGradient id="paint38_linear_531_2529" x1="23.8336" y1="10.0663" x2="24.4981" y2="5.09501" gradientUnits="userSpaceOnUse">
<stop stop-color="#FF7B2A"/>
<stop offset="0.3616" stop-color="#FF9B25"/>
<stop offset="0.77" stop-color="#FFBA20"/>
<stop offset="1" stop-color="#FFC51E"/>
</linearGradient>
<linearGradient id="paint39_linear_531_2529" x1="24.0648" y1="7.89789" x2="21.7198" y2="10.4964" gradientUnits="userSpaceOnUse">
<stop stop-color="#FF7B2A"/>
<stop offset="1" stop-color="#FFC51E"/>
</linearGradient>
<linearGradient id="paint40_linear_531_2529" x1="22.4653" y1="14.2167" x2="24.0896" y2="10.5498" gradientUnits="userSpaceOnUse">
<stop stop-color="#FF7B2A"/>
<stop offset="1" stop-color="#FFC51E"/>
</linearGradient>
<linearGradient id="paint41_linear_531_2529" x1="24.2726" y1="11.9777" x2="26.5614" y2="9.19668" gradientUnits="userSpaceOnUse">
<stop stop-color="#FF7B2A"/>
<stop offset="1" stop-color="#FFC51E"/>
</linearGradient>
</defs>
</svg>
