<svg width="33" height="32" viewBox="0 0 33 32" fill="none" xmlns="http://www.w3.org/2000/svg">
<path d="M17.5201 2.77126L17.0227 2.47945C16.8066 2.35307 16.5115 2.39738 16.2064 2.63938L5.24373 11.3356C4.69917 11.7676 4.32917 12.6651 4.41735 13.3403L6.72792 31.0313C6.76679 31.3291 6.88842 31.5335 7.05879 31.6324L7.54292 31.9139L17.5201 2.77126Z" fill="url(#paint0_linear_531_2482)"/>
<path d="M16.7079 2.92982L5.75387 11.6193C5.20968 12.051 4.84012 12.9486 4.92837 13.6244L7.24081 31.3296C7.32906 32.0053 7.84174 32.2032 8.38587 31.7715L19.3399 23.0821C19.8841 22.6504 20.2537 21.7527 20.1654 21.0769L17.853 3.37176C17.7647 2.69601 17.2521 2.49814 16.7079 2.92982Z" fill="url(#paint1_linear_531_2482)"/>
<path d="M7.39699 13.4985L6.3588 14.322L6.27574 14.8413C6.25318 14.9823 6.17512 15.1245 6.07799 15.2015C5.90418 15.3394 5.75899 15.2093 5.80399 14.956L6.27599 12.3001C6.3163 12.0735 6.44237 11.848 6.59793 11.7246C6.7533 11.6013 6.90893 11.603 6.99537 11.7288L8.00987 13.2058C8.10662 13.3467 8.01949 13.6614 7.84555 13.7993L7.83324 13.8091C7.73612 13.8862 7.63905 13.8829 7.58737 13.8008L7.39699 13.4985ZM7.17037 13.1398L6.67693 12.358L6.46118 13.7023L7.17037 13.1398Z" fill="#FF4757"/>
<path d="M19.0233 19.4756C18.9262 19.5527 18.8481 19.6949 18.8255 19.8358L18.7425 20.3551L17.7043 21.1786L17.5139 20.8763C17.4622 20.7943 17.3652 20.791 17.268 20.8681L17.2557 20.8778C17.0818 21.0158 16.9947 21.3305 17.0914 21.4713L18.1059 22.9483C18.1923 23.0741 18.348 23.0758 18.5033 22.9526C18.6588 22.8292 18.785 22.6038 18.8253 22.3771L19.2973 19.7211C19.3423 19.4679 19.1971 19.3378 19.0233 19.4756ZM18.4243 22.3192L17.9308 21.5374L18.64 20.9748L18.4243 22.3192Z" fill="#FF4757"/>
<path d="M15.0965 11.8894C14.1554 11.4938 12.8248 12.5378 12.1407 14.1996C11.1917 13.8333 9.86386 14.8981 9.19299 16.5724C8.53624 18.2114 8.78367 19.807 9.71642 20.167L12.7085 21.3218C12.9193 21.4031 13.2133 21.1699 13.3652 20.8009L15.5222 15.5615C16.1945 13.9283 16.0179 12.2766 15.0965 11.8894Z" fill="#FF4757"/>
<path d="M7.80639 14.5395C7.5547 14.4338 7.19889 14.7129 7.01589 15.1574C6.76208 15.0594 6.40702 15.3442 6.22758 15.7919C6.05195 16.2302 6.11814 16.6569 6.36758 16.7532L7.16777 17.062C7.22414 17.0837 7.30277 17.0214 7.34339 16.9227L7.9202 15.5215C8.10002 15.0848 8.05277 14.6431 7.80639 14.5395Z" fill="#FF4757"/>
<path d="M17.2948 20.1376C17.5465 20.2434 17.9023 19.9642 18.0853 19.5198C18.3391 19.6177 18.6942 19.333 18.8736 18.8852C19.0492 18.4469 18.983 18.0202 18.7336 17.924L17.9334 17.6152C17.877 17.5934 17.7984 17.6558 17.7578 17.7545L17.181 19.1556C17.0012 19.5924 17.0484 20.034 17.2948 20.1376Z" fill="#FF4757"/>
<path d="M17.0227 2.47945C16.8066 2.35307 16.5115 2.39738 16.2063 2.63938L9.99603 7.56576L10.8543 7.57326L11.3133 7.20913L17.5201 2.77126L17.0227 2.47945Z" fill="url(#paint2_linear_531_2482)"/>
<path d="M10.8543 7.57328L9.22547 27.2642C9.16203 28.0315 9.55485 28.4657 10.1028 28.2338L15.9102 25.7775L19.3309 23.064C19.8755 22.632 20.2455 21.7344 20.1573 21.0592L17.8468 3.36809C17.8237 3.19084 17.7706 3.04753 17.696 2.9389L15.5342 3.85334L10.8543 7.57328Z" fill="url(#paint3_linear_531_2482)"/>
<path d="M24.5634 0.364531L24.0714 0.0783437L24.0709 0.0793437C23.9215 -0.0160938 23.7301 -0.0296563 23.5138 0.0617812L12.4821 4.72797C11.9341 4.95978 11.4385 5.76972 11.375 6.53703L9.71264 26.6418C9.67358 27.114 9.80777 27.4592 10.0441 27.6015L10.0437 27.6023L10.5329 27.8872L24.5634 0.364531Z" fill="url(#paint4_linear_531_2482)"/>
<path d="M23.9873 0.308359L12.946 4.97873C12.3975 5.21073 11.9013 6.02142 11.8378 6.78936L10.1741 26.9115C10.1106 27.6795 10.5038 28.114 11.0523 27.882L22.0936 23.2117C22.6421 22.9797 23.1382 22.1691 23.2017 21.4011L24.8655 1.27892C24.9289 0.510859 24.5358 0.0763586 23.9873 0.308359Z" fill="url(#paint5_linear_531_2482)"/>
<path d="M21.4172 11.976L18.3129 8.54533C18.1463 8.36121 17.8409 8.49046 17.6306 8.8339L13.7134 15.2346C13.5032 15.5781 13.4678 16.0058 13.6344 16.1899L16.7387 19.6206C16.9053 19.8047 17.2107 19.6755 17.4209 19.3321L21.3382 12.9313C21.5484 12.5878 21.5838 12.1601 21.4172 11.976Z" fill="#FF4757"/>
<path d="M14.272 9.58696L13.4358 8.66283C13.391 8.61327 13.3087 8.64802 13.2521 8.74058L12.1969 10.4648C12.1403 10.5573 12.1308 10.6725 12.1756 10.7221L13.0119 11.6462C13.0568 11.6958 13.139 11.661 13.1956 11.5685L14.2508 9.84427C14.3074 9.75177 14.3169 9.63658 14.272 9.58696Z" fill="#FF4757"/>
<path d="M20.7796 18.579L21.6158 19.5031C21.6607 19.5528 21.7429 19.5179 21.7996 19.4254L22.8548 17.7012C22.9114 17.6087 22.9209 17.4934 22.876 17.4439L22.0398 16.5198C21.9949 16.4702 21.9126 16.505 21.856 16.5975L20.8008 18.3217C20.7443 18.4142 20.7347 18.5294 20.7796 18.579Z" fill="#FF4757"/>
<path d="M13.9522 7.716L12.9059 8.15863L12.7294 8.68381C12.6815 8.82631 12.5864 8.94631 12.4885 8.98769C12.3134 9.06181 12.2172 8.85875 12.307 8.60457L13.2491 5.93882C13.3295 5.71132 13.4822 5.52213 13.639 5.45582C13.7956 5.38957 13.9269 5.45838 13.9743 5.6315L14.5304 7.66375C14.5834 7.85757 14.4454 8.16 14.2701 8.23413L14.2577 8.23938C14.1599 8.28082 14.0784 8.2355 14.0515 8.12463L13.9522 7.716ZM13.8339 7.231L13.5764 6.174L13.1191 7.53331L13.8339 7.231Z" fill="#FF4757"/>
<path d="M22.5631 19.1783C22.4652 19.2197 22.3701 19.3397 22.3223 19.4822L22.1458 20.0074L21.0995 20.45L21.0003 20.0414C20.9733 19.9305 20.8919 19.8852 20.794 19.9267L20.7816 19.9319C20.6063 20.006 20.4683 20.3085 20.5214 20.5023L21.0775 22.5345C21.1248 22.7077 21.2561 22.7765 21.4127 22.7102C21.5695 22.6439 21.7222 22.4547 21.8026 22.2272L22.7448 19.5615C22.8345 19.3072 22.7383 19.1042 22.5631 19.1783ZM21.4753 21.992L21.2178 20.935L21.9325 20.6327L21.4753 21.992Z" fill="#FF4757"/>
<path d="M22.1521 14.9487C21.5667 15.2867 21.0064 15.7531 20.4894 16.312L18.2786 18.5497C16.373 20.3727 14.9607 23.4723 14.8683 26.2678L22.0935 23.2117C22.642 22.9797 23.1382 22.169 23.2017 21.401L23.781 14.3945C23.2734 14.4378 22.7247 14.6181 22.1521 14.9487Z" fill="url(#paint6_linear_531_2482)"/>
<path d="M20.8787 15.8225L20.8786 15.8225C20.0635 16.5948 19.3395 17.606 18.7695 18.7311L18.7694 18.7316L17.6008 22.2322L17.5991 22.236C17.4963 22.8395 17.4454 23.441 17.4542 24.0258C17.4626 24.583 17.5249 25.0907 17.6337 25.5448L20.9153 28.8087L26.923 15.6322L25.1385 14.6375C25.1329 14.6343 25.1273 14.6312 25.1217 14.628L25.1125 14.6229L25.1124 14.6231C24.583 14.3338 23.9568 14.2549 23.2722 14.4138L20.8787 15.8225Z" fill="url(#paint7_linear_531_2482)"/>
<path d="M17.6337 25.5447C17.8972 26.6454 18.4351 27.4294 19.1524 27.8257L19.1523 27.8259L20.9153 28.8086L19.4077 26.5336L17.6337 25.5447Z" fill="url(#paint8_linear_531_2482)"/>
<path d="M22.7771 29.029L25.1703 27.6207C25.9855 26.8483 26.7096 25.8369 27.2797 24.7116L28.4491 21.2115C28.5524 20.6065 28.6036 20.0035 28.5948 19.4174C28.5864 18.8604 28.5242 18.3526 28.4156 17.8985L27.1894 15.8087C26.6029 15.3637 25.8666 15.2127 25.0464 15.4031L22.6531 16.8115C21.8379 17.5839 21.1138 18.5953 20.5436 19.7206L19.3742 23.2207C19.2709 23.8257 19.2198 24.4287 19.2286 25.0149C19.2369 25.5719 19.2991 26.0797 19.4078 26.5337L20.9142 28.807C21.4483 29.1066 22.0826 29.1902 22.7771 29.029Z" fill="url(#paint9_linear_531_2482)"/>
<path d="M23.9811 26.8249C25.8735 25.694 27.3765 22.7137 27.3382 20.1683C27.2998 17.623 25.7346 16.4763 23.8422 17.6073C21.9497 18.7382 20.4467 21.7185 20.4851 24.2638C20.5235 26.8093 22.0887 27.9559 23.9811 26.8249ZM21.0049 23.9532C20.9723 21.794 22.2473 19.2659 23.8527 18.3065C25.458 17.3471 26.7857 18.3198 26.8183 20.479C26.8508 22.6383 25.5758 25.1663 23.9705 26.1257C22.3652 27.0851 21.0375 26.1125 21.0049 23.9532Z" fill="url(#paint10_linear_531_2482)"/>
<path d="M27.186 20.0836C27.2244 22.6289 25.7214 25.6092 23.829 26.7401C23.0071 27.2313 22.2472 27.2924 21.647 26.9964C22.2682 27.3846 23.0881 27.3586 23.981 26.8249C25.8735 25.694 27.3765 22.7138 27.3381 20.1684C27.3164 18.7284 26.8058 17.7367 26.0241 17.3511C26.7194 17.7856 27.1658 18.7393 27.186 20.0836Z" fill="url(#paint11_linear_531_2482)"/>
<path d="M23.7006 18.2218C22.0953 19.1811 20.8203 21.7093 20.8528 23.8684C20.8713 25.0972 21.3097 25.9409 21.9795 26.2638C21.3962 25.8919 21.022 25.0863 21.005 23.9533C20.9724 21.7941 22.2474 19.2659 23.8527 18.3066C24.5445 17.8931 25.1844 17.8393 25.6917 18.0838C25.1633 17.747 24.4635 17.7659 23.7006 18.2218Z" fill="url(#paint12_linear_531_2482)"/>
<path d="M23.5 17.9673L23.5257 18.2717C23.3392 18.4058 23.154 18.5626 22.9754 18.738L22.9067 18.47C23.0994 18.2809 23.2989 18.1118 23.5 17.9673ZM24.105 17.6076C24.3067 17.5128 24.5076 17.4438 24.7023 17.4027L24.6418 17.7474C24.4612 17.7856 24.2749 17.8495 24.0878 17.9376L24.105 17.6076ZM22.3458 19.1003L22.4551 19.3225C22.2893 19.5343 22.1304 19.7639 21.9829 20.005L21.8369 19.8357C21.9959 19.5759 22.1671 19.3285 22.3458 19.1003ZM25.2709 17.3616C25.4528 17.3755 25.6278 17.4171 25.7911 17.4853L25.6519 17.8241C25.5003 17.7609 25.3379 17.7223 25.1691 17.7094L25.2709 17.3616ZM21.3967 20.6508L21.5743 20.7616C21.4504 21.0231 21.339 21.2939 21.2432 21.5664L21.04 21.5179C21.1433 21.2242 21.2634 20.9324 21.3967 20.6508ZM26.2458 17.7683C26.3846 17.8882 26.5104 18.0338 26.6199 18.201L26.4212 18.4885C26.3197 18.3333 26.2029 18.1981 26.074 18.0868L26.2458 17.7683ZM20.7792 22.4079L21.0012 22.3921C20.9366 22.6672 20.8881 22.9426 20.8571 23.2108L20.6238 23.2906C20.6572 23.0014 20.7095 22.7044 20.7792 22.4079ZM26.9002 18.7697C26.9765 18.9794 27.0359 19.2101 27.0764 19.4553L26.8446 19.6519C26.807 19.4245 26.752 19.2106 26.6812 19.0161L26.9002 18.7697ZM20.5789 24.1356L20.8154 23.9943L20.8156 24.0078C20.8194 24.2608 20.8405 24.5036 20.8782 24.7296L20.6465 24.9267C20.6059 24.6831 20.5832 24.4215 20.5791 24.1491L20.5789 24.1356ZM26.9063 20.3744L27.1429 20.2335C27.1467 20.506 27.1319 20.79 27.0989 21.0776L26.8655 21.158C26.8961 20.8911 26.9099 20.6275 26.9063 20.3744ZM21.0425 25.3647C21.1135 25.5588 21.2013 25.7359 21.3033 25.8911L21.1048 26.1789C20.9949 26.0116 20.9003 25.8207 20.8237 25.6114L21.0425 25.3647ZM26.7223 21.9765L26.9444 21.9602C26.8751 22.2564 26.7877 22.5559 26.6845 22.8503L26.4811 22.8022C26.5769 22.5291 26.658 22.2513 26.7223 21.9765ZM21.6512 26.2916C21.7801 26.4024 21.9224 26.4904 22.0739 26.5532L21.9349 26.8922C21.7717 26.8246 21.6185 26.7298 21.4796 26.6104L21.6512 26.2916ZM26.1507 23.6073L26.3285 23.7176C26.1955 23.9993 26.0476 24.2737 25.8891 24.5333L25.7429 24.3644C25.8899 24.1234 26.0272 23.8688 26.1507 23.6073ZM22.5572 26.6666C22.7264 26.6791 22.9039 26.6658 23.0848 26.6272L23.0247 26.9719C22.8296 27.0135 22.6382 27.0278 22.4558 27.0144L22.5572 26.6666ZM25.271 25.0476L25.3807 25.2694C25.2017 25.4985 25.0131 25.7109 24.8202 25.9007L24.7511 25.6331C24.9301 25.4571 25.105 25.2601 25.271 25.0476ZM23.639 26.4358C23.8248 26.3479 24.0159 26.2339 24.2009 26.1005L24.227 26.4046C24.0277 26.5483 23.8221 26.6709 23.622 26.7655L23.639 26.4358Z" fill="url(#paint13_linear_531_2482)"/>
<path d="M21.3459 23.7495C21.3746 25.6554 22.5466 26.514 23.9636 25.6671C25.3806 24.8203 26.5061 22.5887 26.4774 20.6828C26.4486 18.7768 25.2766 17.9183 23.8596 18.7651C22.4426 19.612 21.3171 21.8435 21.3459 23.7495Z" fill="url(#paint14_linear_531_2482)"/>
<path d="M24.0065 28.515C24.4093 28.2743 24.7992 27.9722 25.1702 27.6207L25.1648 27.2636C25.1595 26.9131 24.944 26.7552 24.6834 26.9109L23.2339 27.7772C22.9733 27.9329 22.7663 28.3433 22.7716 28.6938L22.7766 29.0293C23.1698 28.938 23.5821 28.7687 24.0065 28.515Z" fill="url(#paint15_linear_531_2482)"/>
<path d="M28.4491 21.2115L28.2166 21.1704C27.9883 21.13 27.7013 21.4064 27.5756 21.7879L26.8763 23.9094C26.7505 24.2909 26.8337 24.6328 27.0621 24.6732L27.2798 24.7117C27.8355 23.6145 28.2447 22.4092 28.4491 21.2115Z" fill="url(#paint16_linear_531_2482)"/>
<path d="M27.5538 18.3483C27.6887 18.574 27.9788 18.5056 28.2019 18.1955L28.4155 17.8985C28.1892 16.9532 27.7603 16.2418 27.1893 15.8087L26.9633 16.1229C26.7403 16.433 26.6688 16.8674 26.8037 17.0931L27.5538 18.3483Z" fill="url(#paint17_linear_531_2482)"/>
<path d="M23.2721 14.4138C22.879 14.5051 22.4668 14.6745 22.0423 14.9281C21.6395 15.1688 21.2497 15.4709 20.8787 15.8225L22.653 16.8115L25.0465 15.4029L23.2721 14.4138Z" fill="url(#paint18_linear_531_2482)"/>
<path d="M23.1398 17.5213L24.5893 16.6551C24.8498 16.4993 25.0568 16.089 25.0516 15.7385L25.0465 15.403C24.6534 15.4943 24.2411 15.6636 23.8167 15.9172C23.4139 16.1579 23.024 16.46 22.653 16.8115L22.6584 17.1686C22.6636 17.5191 22.8791 17.6771 23.1398 17.5213Z" fill="url(#paint19_linear_531_2482)"/>
<path d="M18.7694 18.7316C18.2135 19.8289 17.8051 21.0343 17.6008 22.2323L19.3741 23.2208L20.5436 19.7206L18.7694 18.7316Z" fill="url(#paint20_linear_531_2482)"/>
<path d="M19.6066 23.2619C19.835 23.3023 20.122 23.0258 20.2477 22.6444L20.947 20.5228C21.0728 20.1414 20.9896 19.7995 20.7613 19.7591L20.5436 19.7206C19.9878 20.8176 19.5786 22.023 19.3741 23.2207L19.6066 23.2619Z" fill="url(#paint21_linear_531_2482)"/>
<path d="M20.9153 28.8087L21.0927 28.5321C21.3158 28.222 21.3872 27.7876 21.2523 27.5619L20.2693 26.0839C20.1345 25.8582 19.8443 25.9266 19.6213 26.2367L19.4077 26.5337C19.634 27.479 20.247 28.3935 20.9153 28.8087Z" fill="url(#paint22_linear_531_2482)"/>
<defs>
<linearGradient id="paint0_linear_531_2482" x1="9.75535" y1="15.67" x2="10.6992" y2="14.0352" gradientUnits="userSpaceOnUse">
<stop stop-color="#43386B"/>
<stop offset="1" stop-color="#7662BD"/>
</linearGradient>
<linearGradient id="paint1_linear_531_2482" x1="14.4001" y1="31.9087" x2="2.13795" y2="16.4454" gradientUnits="userSpaceOnUse">
<stop stop-color="#D7D1EB"/>
<stop offset="1" stop-color="#F2EDFF"/>
</linearGradient>
<linearGradient id="paint2_linear_531_2482" x1="15.8728" y1="3.42751" x2="5.32785" y2="11.1246" gradientUnits="userSpaceOnUse">
<stop stop-color="#43386B"/>
<stop offset="1" stop-color="#43386B" stop-opacity="0"/>
</linearGradient>
<linearGradient id="paint3_linear_531_2482" x1="20.0433" y1="12.6945" x2="-5.26153" y2="25.1146" gradientUnits="userSpaceOnUse">
<stop stop-color="#43386B"/>
<stop offset="1" stop-color="#43386B" stop-opacity="0"/>
</linearGradient>
<linearGradient id="paint4_linear_531_2482" x1="15.564" y1="8.99584" x2="16.5413" y2="7.30309" gradientUnits="userSpaceOnUse">
<stop stop-color="#43386B"/>
<stop offset="1" stop-color="#7662BD"/>
</linearGradient>
<linearGradient id="paint5_linear_531_2482" x1="16.1102" y1="30.6388" x2="7.12131" y2="9.40136" gradientUnits="userSpaceOnUse">
<stop stop-color="#D7D1EB"/>
<stop offset="1" stop-color="#F2EDFF"/>
</linearGradient>
<linearGradient id="paint6_linear_531_2482" x1="26.515" y1="20.6078" x2="13.7428" y2="20.1165" gradientUnits="userSpaceOnUse">
<stop stop-color="#7662BD"/>
<stop offset="1" stop-color="#7662BD" stop-opacity="0"/>
</linearGradient>
<linearGradient id="paint7_linear_531_2482" x1="18.9771" y1="25.25" x2="24.3826" y2="15.8874" gradientUnits="userSpaceOnUse">
<stop stop-color="#00395E"/>
<stop offset="1" stop-color="#0072BC"/>
</linearGradient>
<linearGradient id="paint8_linear_531_2482" x1="20.7359" y1="24.6456" x2="25.0866" y2="17.1098" gradientUnits="userSpaceOnUse">
<stop stop-color="#C5BAEB"/>
<stop offset="1" stop-color="#D7D1EB"/>
</linearGradient>
<linearGradient id="paint9_linear_531_2482" x1="23.9116" y1="29.3682" x2="23.9116" y2="14.7609" gradientUnits="userSpaceOnUse">
<stop stop-color="#0072BC"/>
<stop offset="1" stop-color="#2F97F7"/>
</linearGradient>
<linearGradient id="paint10_linear_531_2482" x1="20.4138" y1="24.286" x2="31.6034" y2="17.7265" gradientUnits="userSpaceOnUse">
<stop stop-color="#00395E"/>
<stop offset="1" stop-color="#0072BC"/>
</linearGradient>
<linearGradient id="paint11_linear_531_2482" x1="23.956" y1="24.6855" x2="26.0518" y2="20.9242" gradientUnits="userSpaceOnUse">
<stop stop-color="#00395E"/>
<stop offset="1" stop-color="#0072BC"/>
</linearGradient>
<linearGradient id="paint12_linear_531_2482" x1="24.4496" y1="18.6582" x2="22.4885" y2="22.1778" gradientUnits="userSpaceOnUse">
<stop stop-color="#00395E"/>
<stop offset="1" stop-color="#0072BC"/>
</linearGradient>
<linearGradient id="paint13_linear_531_2482" x1="23.8478" y1="17.8087" x2="27.764" y2="24.3586" gradientUnits="userSpaceOnUse">
<stop stop-color="#F2EFFA"/>
<stop offset="1" stop-color="white"/>
</linearGradient>
<linearGradient id="paint14_linear_531_2482" x1="23.9116" y1="25.4086" x2="23.9116" y2="17.8436" gradientUnits="userSpaceOnUse">
<stop stop-color="#F2EFFA"/>
<stop offset="1" stop-color="white"/>
</linearGradient>
<linearGradient id="paint15_linear_531_2482" x1="23.9709" y1="28.4454" x2="23.9709" y2="14.6631" gradientUnits="userSpaceOnUse">
<stop stop-color="#F2EFFA"/>
<stop offset="1" stop-color="white"/>
</linearGradient>
<linearGradient id="paint16_linear_531_2482" x1="27.6334" y1="28.4454" x2="27.6334" y2="14.663" gradientUnits="userSpaceOnUse">
<stop stop-color="#F2EFFA"/>
<stop offset="1" stop-color="white"/>
</linearGradient>
<linearGradient id="paint17_linear_531_2482" x1="27.5755" y1="28.4453" x2="27.5755" y2="14.6629" gradientUnits="userSpaceOnUse">
<stop stop-color="#F2EFFA"/>
<stop offset="1" stop-color="white"/>
</linearGradient>
<linearGradient id="paint18_linear_531_2482" x1="19.2318" y1="22.0747" x2="22.8772" y2="15.7608" gradientUnits="userSpaceOnUse">
<stop stop-color="#C5BAEB"/>
<stop offset="1" stop-color="#D7D1EB"/>
</linearGradient>
<linearGradient id="paint19_linear_531_2482" x1="23.8523" y1="28.4453" x2="23.8523" y2="14.663" gradientUnits="userSpaceOnUse">
<stop stop-color="#F2EFFA"/>
<stop offset="1" stop-color="white"/>
</linearGradient>
<linearGradient id="paint20_linear_531_2482" x1="18.0979" y1="22.6629" x2="22.1766" y2="15.5985" gradientUnits="userSpaceOnUse">
<stop stop-color="#C5BAEB"/>
<stop offset="1" stop-color="#D7D1EB"/>
</linearGradient>
<linearGradient id="paint21_linear_531_2482" x1="20.1899" y1="28.4453" x2="20.1899" y2="14.663" gradientUnits="userSpaceOnUse">
<stop stop-color="#F2EFFA"/>
<stop offset="1" stop-color="white"/>
</linearGradient>
<linearGradient id="paint22_linear_531_2482" x1="20.3642" y1="28.4454" x2="20.3642" y2="14.663" gradientUnits="userSpaceOnUse">
<stop stop-color="#F2EFFA"/>
<stop offset="1" stop-color="white"/>
</linearGradient>
</defs>
</svg>
