<svg width="33" height="32" viewBox="0 0 33 32" fill="none" xmlns="http://www.w3.org/2000/svg">
<path d="M15.2854 0.399306L3.80136 7.02962C3.04979 7.46356 2.58673 8.26549 2.58673 9.13337V22.9404C2.58673 23.8083 3.04973 24.6102 3.80136 25.0442L15.2854 31.6745C16.037 32.1084 16.963 32.1084 17.7146 31.6745L29.1987 25.0442C29.9503 24.6102 30.4133 23.8083 30.4133 22.9404V9.13337C30.4133 8.26549 29.9503 7.46356 29.1987 7.02962L17.7146 0.399306C16.963 -0.0346319 16.037 -0.0346319 15.2854 0.399306Z" fill="url(#paint0_linear_531_2588)"/>
<path d="M29.1986 7.02962L17.7146 0.399306C16.963 -0.0346318 16.037 -0.0346318 15.2854 0.399306L3.80136 7.02962C3.04973 7.46356 2.58673 8.26549 2.58673 9.13337V16.6475H30.4132V9.13337C30.4132 8.26549 29.9502 7.46356 29.1986 7.02962Z" fill="url(#paint1_linear_531_2588)"/>
<path d="M29.0856 8.49753L17.2391 15.3371C16.7818 15.6012 16.5 16.0892 16.5 16.6172V30.8428C16.5 31.5242 17.2376 31.95 17.8276 31.6093L29.6741 24.7697C30.1315 24.5057 30.4132 24.0177 30.4132 23.4896V9.26403C30.4132 8.58272 29.6757 8.15684 29.0856 8.49753Z" fill="url(#paint2_linear_531_2588)"/>
<path d="M3.91442 8.49744L15.7609 15.337C16.2183 15.6011 16.5 16.0891 16.5 16.6171V30.8427C16.5 31.5241 15.7625 31.9499 15.1724 31.6092L3.32585 24.7697C2.86848 24.5056 2.58679 24.0176 2.58679 23.4896V9.264C2.58673 8.58263 3.32435 8.15682 3.91442 8.49744Z" fill="url(#paint3_linear_531_2588)"/>
<path d="M11.1392 25.2498C11.1392 24.0639 11.8603 23.5188 12.7497 24.0323C13.6392 24.5459 14.3602 25.9236 14.3602 27.1095C14.3602 28.2955 13.6392 28.8406 12.7497 28.327C11.8602 27.8135 11.1392 26.4358 11.1392 25.2498Z" fill="url(#paint4_linear_531_2588)"/>
<path d="M4.7265 21.5475C4.7265 20.3616 5.44756 19.8164 6.337 20.33C7.22644 20.8436 7.9475 22.2213 7.9475 23.4072C7.9475 24.5931 7.22644 25.1382 6.337 24.6247C5.44756 24.1112 4.7265 22.7334 4.7265 21.5475Z" fill="url(#paint5_linear_531_2588)"/>
<path d="M11.1392 16.6996C11.1392 15.5137 11.8603 14.9685 12.7497 15.4821C13.6392 15.9957 14.3602 17.3733 14.3602 18.5593C14.3602 19.7452 13.6392 20.2904 12.7497 19.7768C11.8602 19.2633 11.1392 17.8856 11.1392 16.6996Z" fill="url(#paint6_linear_531_2588)"/>
<path d="M4.7265 12.9972C4.7265 11.8113 5.44756 11.2661 6.337 11.7797C7.22644 12.2933 7.9475 13.671 7.9475 14.8569C7.9475 16.0428 7.22644 16.588 6.337 16.0744C5.44756 15.5609 4.7265 14.1831 4.7265 12.9972Z" fill="url(#paint7_linear_531_2588)"/>
<path d="M3.64003 7.1228L15.5243 0.261422C16.128 -0.0871406 16.8718 -0.0871406 17.4756 0.261422L29.3599 7.1228C29.828 7.39311 29.828 8.0688 29.3599 8.33905L17.4756 15.2005C16.8718 15.549 16.128 15.549 15.5243 15.2005L3.64003 8.33905C3.17191 8.0688 3.17191 7.39311 3.64003 7.1228Z" fill="url(#paint8_linear_531_2588)"/>
<path d="M18.7669 9.03973C20.2126 8.2051 20.3696 6.94248 19.1176 6.21967C17.8656 5.49685 15.6787 5.58748 14.233 6.42217C12.7873 7.25679 12.6303 8.51942 13.8823 9.24223C15.1343 9.96504 17.3212 9.87442 18.7669 9.03973Z" fill="url(#paint9_linear_531_2588)"/>
<path d="M25.0671 19.1235C25.0671 17.9376 24.3461 17.3925 23.4566 17.9061C22.5672 18.4196 21.8461 19.7973 21.8461 20.9832C21.8461 22.1692 22.5672 22.7143 23.4566 22.2007C24.3461 21.6872 25.0671 20.3095 25.0671 19.1235Z" fill="url(#paint10_linear_531_2588)"/>
<path d="M21.8608 25.2498C21.8608 24.0639 21.1397 23.5188 20.2503 24.0323C19.3608 24.5459 18.6398 25.9236 18.6398 27.1095C18.6398 28.2955 19.3608 28.8406 20.2503 28.327C21.1397 27.8135 21.8608 26.4358 21.8608 25.2498Z" fill="url(#paint11_linear_531_2588)"/>
<path d="M28.2735 21.5475C28.2735 20.3616 27.5524 19.8164 26.663 20.33C25.7736 20.8436 25.0525 22.2213 25.0525 23.4072C25.0525 24.5931 25.7736 25.1382 26.663 24.6247C27.5524 24.1112 28.2735 22.7334 28.2735 21.5475Z" fill="url(#paint12_linear_531_2588)"/>
<path d="M21.8608 16.6996C21.8608 15.5137 21.1397 14.9685 20.2503 15.4821C19.3608 15.9957 18.6398 17.3733 18.6398 18.5593C18.6398 19.7452 19.3608 20.2904 20.2503 19.7768C21.1397 19.2633 21.8608 17.8856 21.8608 16.6996Z" fill="url(#paint13_linear_531_2588)"/>
<path d="M28.2735 12.9972C28.2735 11.8113 27.5524 11.2661 26.663 11.7797C25.7736 12.2933 25.0525 13.671 25.0525 14.8569C25.0525 16.0428 25.7736 16.588 26.663 16.0744C27.5524 15.5609 28.2735 14.1831 28.2735 12.9972Z" fill="url(#paint14_linear_531_2588)"/>
<defs>
<linearGradient id="paint0_linear_531_2588" x1="16.5" y1="28.0476" x2="16.5" y2="-0.467881" gradientUnits="userSpaceOnUse">
<stop stop-color="#C9BAEC"/>
<stop offset="1" stop-color="#F3EEFA"/>
</linearGradient>
<linearGradient id="paint1_linear_531_2588" x1="-7.18983" y1="-1.48813" x2="17.0073" y2="12.4821" gradientUnits="userSpaceOnUse">
<stop stop-color="#C9BAEC"/>
<stop offset="1" stop-color="#F3EEFA"/>
</linearGradient>
<linearGradient id="paint2_linear_531_2588" x1="23.4566" y1="37.9792" x2="23.4566" y2="6.05203" gradientUnits="userSpaceOnUse">
<stop stop-color="#C9BAEC"/>
<stop offset="1" stop-color="#F3EEFA"/>
</linearGradient>
<linearGradient id="paint3_linear_531_2588" x1="9.54335" y1="22.9684" x2="9.54335" y2="-5.54687" gradientUnits="userSpaceOnUse">
<stop stop-color="#C9BAEC"/>
<stop offset="1" stop-color="#F3EEFA"/>
</linearGradient>
<linearGradient id="paint4_linear_531_2588" x1="13.8715" y1="24.2368" x2="11.8603" y2="27.7202" gradientUnits="userSpaceOnUse">
<stop stop-color="#1D182F"/>
<stop offset="0.1795" stop-color="#292243"/>
<stop offset="0.5463" stop-color="#493D76"/>
<stop offset="1" stop-color="#7662BD"/>
</linearGradient>
<linearGradient id="paint5_linear_531_2588" x1="7.45875" y1="20.5344" x2="5.44756" y2="24.0179" gradientUnits="userSpaceOnUse">
<stop stop-color="#1D182F"/>
<stop offset="0.1795" stop-color="#292243"/>
<stop offset="0.5463" stop-color="#493D76"/>
<stop offset="1" stop-color="#7662BD"/>
</linearGradient>
<linearGradient id="paint6_linear_531_2588" x1="13.8715" y1="15.6866" x2="11.8603" y2="19.17" gradientUnits="userSpaceOnUse">
<stop stop-color="#1D182F"/>
<stop offset="0.1795" stop-color="#292243"/>
<stop offset="0.5463" stop-color="#493D76"/>
<stop offset="1" stop-color="#7662BD"/>
</linearGradient>
<linearGradient id="paint7_linear_531_2588" x1="7.45875" y1="11.9841" x2="5.44756" y2="15.4676" gradientUnits="userSpaceOnUse">
<stop stop-color="#1D182F"/>
<stop offset="0.1795" stop-color="#292243"/>
<stop offset="0.5463" stop-color="#493D76"/>
<stop offset="1" stop-color="#7662BD"/>
</linearGradient>
<linearGradient id="paint8_linear_531_2588" x1="-5.2489" y1="-4.82577" x2="18.9227" y2="9.12967" gradientUnits="userSpaceOnUse">
<stop stop-color="#C9BAEC"/>
<stop offset="1" stop-color="#F3EEFA"/>
</linearGradient>
<linearGradient id="paint9_linear_531_2588" x1="18.1543" y1="10.5964" x2="15.4384" y2="5.89223" gradientUnits="userSpaceOnUse">
<stop stop-color="#63141A"/>
<stop offset="0.2842" stop-color="#981F28"/>
<stop offset="0.5147" stop-color="#C62834"/>
<stop offset="0.9681" stop-color="#FB4355"/>
<stop offset="1" stop-color="#FF4557"/>
</linearGradient>
<linearGradient id="paint10_linear_531_2588" x1="22.3349" y1="18.1105" x2="24.3461" y2="21.5939" gradientUnits="userSpaceOnUse">
<stop stop-color="#1D182F"/>
<stop offset="0.1795" stop-color="#292243"/>
<stop offset="0.5463" stop-color="#493D76"/>
<stop offset="1" stop-color="#7662BD"/>
</linearGradient>
<linearGradient id="paint11_linear_531_2588" x1="19.1285" y1="24.2368" x2="21.1396" y2="27.7202" gradientUnits="userSpaceOnUse">
<stop stop-color="#1D182F"/>
<stop offset="0.1795" stop-color="#292243"/>
<stop offset="0.5463" stop-color="#493D76"/>
<stop offset="1" stop-color="#7662BD"/>
</linearGradient>
<linearGradient id="paint12_linear_531_2588" x1="25.5412" y1="20.5344" x2="27.5524" y2="24.0179" gradientUnits="userSpaceOnUse">
<stop stop-color="#1D182F"/>
<stop offset="0.1795" stop-color="#292243"/>
<stop offset="0.5463" stop-color="#493D76"/>
<stop offset="1" stop-color="#7662BD"/>
</linearGradient>
<linearGradient id="paint13_linear_531_2588" x1="19.1285" y1="15.6866" x2="21.1396" y2="19.17" gradientUnits="userSpaceOnUse">
<stop stop-color="#1D182F"/>
<stop offset="0.1795" stop-color="#292243"/>
<stop offset="0.5463" stop-color="#493D76"/>
<stop offset="1" stop-color="#7662BD"/>
</linearGradient>
<linearGradient id="paint14_linear_531_2588" x1="25.5412" y1="11.9841" x2="27.5524" y2="15.4676" gradientUnits="userSpaceOnUse">
<stop stop-color="#1D182F"/>
<stop offset="0.1795" stop-color="#292243"/>
<stop offset="0.5463" stop-color="#493D76"/>
<stop offset="1" stop-color="#7662BD"/>
</linearGradient>
</defs>
</svg>
