<svg width="32" height="32" viewBox="0 0 32 32" fill="none" xmlns="http://www.w3.org/2000/svg">
<path d="M27.0404 26.0556L19.4931 22.3465C20.963 21.6815 22.2135 20.6122 23.0985 19.2633C23.9836 17.9143 24.4667 16.3415 24.4915 14.7284C24.4915 14.7231 24.4945 14.7186 24.4945 14.713C24.4945 14.7074 24.4923 14.7055 24.4923 14.701C24.4923 14.6695 24.4945 14.638 24.4945 14.6061C24.4999 12.8015 23.9278 11.0425 22.8618 9.58622C21.7959 8.12998 20.2921 7.05292 18.5703 6.51251L19.1433 5.85514C19.1906 5.80087 19.2212 5.73414 19.2316 5.66291C19.242 5.59168 19.2317 5.51897 19.2019 5.45345C19.1721 5.38793 19.124 5.33238 19.0635 5.29342C19.003 5.25447 18.9325 5.23376 18.8605 5.23376H13.1418C13.0698 5.23383 12.9994 5.25459 12.9389 5.29357C12.8784 5.33256 12.8305 5.38811 12.8007 5.45362C12.7709 5.51912 12.7606 5.59181 12.771 5.663C12.7814 5.7342 12.8121 5.8009 12.8594 5.85514L13.432 6.51251C11.7097 7.05276 10.2055 8.12996 9.13939 9.58654C8.0733 11.0431 7.50128 12.8026 7.50701 14.6076C7.50701 14.6395 7.50701 14.671 7.50926 14.7025C7.50926 14.707 7.50701 14.7104 7.50701 14.7145C7.50701 14.7186 7.50964 14.7246 7.51001 14.7299C7.53497 16.3426 8.018 17.915 8.90275 19.2636C9.7875 20.6122 11.0375 21.6814 12.5069 22.3465L4.95964 26.0556C4.88352 26.0929 4.82228 26.1549 4.78591 26.2315C4.74954 26.3081 4.74018 26.3947 4.75936 26.4773C4.77855 26.5598 4.82514 26.6335 4.89155 26.6861C4.95795 26.7388 5.04024 26.7675 5.12501 26.7674H26.875C26.9601 26.7678 27.0427 26.7393 27.1095 26.6866C27.1762 26.6339 27.223 26.56 27.2422 26.4772C27.2615 26.3943 27.252 26.3074 27.2153 26.2307C27.1786 26.1539 27.1169 26.092 27.0404 26.0549V26.0556ZM10.8603 20.3834L15.625 15.6186V22.3311C13.8604 22.2476 12.1781 21.5599 10.8603 20.3834ZM8.27989 15.088H15.0948L10.3248 19.858C9.11187 18.5524 8.3892 16.8667 8.27989 15.088ZM21.6753 19.858L16.9053 15.088H23.7201C23.6108 16.8667 22.8882 18.5524 21.6753 19.858ZM16.375 15.6186L21.1398 20.3834C19.822 21.5602 18.1397 22.2481 16.375 22.3319V15.6186ZM23.7333 14.338H16.9053L21.7889 9.45476C22.9883 10.8049 23.6764 12.5329 23.7333 14.338ZM21.2658 8.91701L16.375 13.8081V9.02876L18.025 7.13576C19.2338 7.45775 20.3461 8.06909 21.2658 8.91701ZM18.0363 5.98264L16 8.31626L13.9664 5.98264H18.0363ZM15.625 9.02501V13.8078L10.7343 8.91701C11.6539 8.06891 12.7662 7.45743 13.975 7.13539L15.625 9.02501ZM10.2111 9.45476L15.0948 14.338H8.26676C8.32364 12.5329 9.01168 10.8049 10.2111 9.45476ZM6.73751 26.0174L13.4613 22.7125C15.1142 23.23 16.8858 23.23 18.5388 22.7125L25.2625 26.0174H6.73751Z" fill="white"/>
</svg>
