<svg width="32" height="32" viewBox="0 0 32 32" fill="none" xmlns="http://www.w3.org/2000/svg">
<path d="M23.182 10.2025C22.8185 10.2011 22.4633 10.3109 22.1641 10.5172C21.8648 10.7235 21.6358 11.0164 21.5077 11.3566C21.3797 11.6967 21.3588 12.0679 21.4478 12.4204C21.5368 12.7728 21.7314 13.0895 22.0056 13.3281V17.3538H21.1431V13.9938C21.1425 13.5282 20.9573 13.0818 20.628 12.7526C20.2987 12.4235 19.8522 12.2384 19.3866 12.238H17.725L19.1875 8.05C19.2426 7.89377 19.2484 7.72442 19.2043 7.56476C19.1602 7.40509 19.0682 7.26279 18.9407 7.15701C18.8132 7.05123 18.6564 6.98705 18.4913 6.97313C18.3263 6.9592 18.1609 6.9962 18.0175 7.07913L16.405 8.005C16.3982 8.00903 16.3906 8.01161 16.3827 8.01258C16.3749 8.01355 16.3669 8.01288 16.3593 8.01063C16.3514 8.00853 16.344 8.00485 16.3375 7.99983C16.3311 7.9948 16.3257 7.98853 16.3218 7.98138L14.8 5.17375C14.7305 5.04542 14.6276 4.93825 14.5022 4.86356C14.3767 4.78888 14.2335 4.74945 14.0875 4.74945C13.9416 4.74945 13.7983 4.78888 13.6729 4.86356C13.5475 4.93825 13.4446 5.04542 13.375 5.17375L11.8525 7.981C11.8487 7.98823 11.8433 7.99457 11.8369 7.99961C11.8304 8.00465 11.823 8.00828 11.815 8.01025C11.7994 8.01442 11.7827 8.01241 11.7685 8.00463L10.156 7.07875C10.0126 6.99694 9.84771 6.96086 9.68327 6.97535C9.51884 6.98983 9.36275 7.05418 9.23589 7.1598C9.10902 7.26542 9.01744 7.40726 8.97339 7.56635C8.92934 7.72543 8.93492 7.89418 8.9894 8.05L10.4519 12.2391H8.7869C8.32149 12.2395 7.87523 12.4245 7.54596 12.7534C7.21669 13.0823 7.03129 13.5283 7.0304 13.9938V23.2416C7.0304 23.2443 7.0304 23.2461 7.0304 23.2488C7.0304 23.2514 7.0304 23.2536 7.0304 23.2559V26.875C7.0304 26.9745 7.0699 27.0698 7.14023 27.1402C7.21056 27.2105 7.30594 27.25 7.4054 27.25H20.77C20.8695 27.25 20.9649 27.2105 21.0352 27.1402C21.1055 27.0698 21.145 26.9745 21.145 26.875V23.2559C21.145 23.2536 21.145 23.2514 21.145 23.2488C21.145 23.2461 21.145 23.2443 21.145 23.2416V21.8541H23.9875C24.087 21.8541 24.1824 21.8146 24.2527 21.7443C24.323 21.674 24.3625 21.5786 24.3625 21.4791V13.3263C24.6362 13.0873 24.8303 12.7704 24.9188 12.4181C25.0073 12.0657 24.9859 11.6947 24.8576 11.3548C24.7293 11.0149 24.5001 10.7224 24.2008 10.5164C23.9016 10.3105 23.5464 10.2009 23.1831 10.2025H23.182ZM9.6974 7.8025C9.69225 7.79103 9.69127 7.77812 9.69463 7.76601C9.69798 7.75389 9.70546 7.74332 9.71577 7.73613C9.72483 7.72748 9.73656 7.72218 9.74903 7.72109C9.7615 7.72 9.77398 7.72319 9.7844 7.73013L11.3969 8.656C11.4906 8.70985 11.5942 8.74438 11.7015 8.75756C11.8088 8.77073 11.9176 8.76229 12.0216 8.73272C12.1256 8.70315 12.2226 8.65305 12.3069 8.58539C12.3912 8.51773 12.4611 8.43387 12.5125 8.33875L14.035 5.53188C14.0397 5.52202 14.0472 5.51375 14.0565 5.50808C14.0658 5.50242 14.0766 5.49961 14.0875 5.5C14.0985 5.49952 14.1094 5.50225 14.1188 5.50784C14.1283 5.51343 14.1359 5.52165 14.1408 5.5315L15.6633 8.33913C15.7147 8.43415 15.7847 8.5179 15.8691 8.58545C15.9534 8.653 16.0504 8.70298 16.1544 8.73244C16.2584 8.7619 16.3672 8.77025 16.4745 8.75699C16.5817 8.74374 16.6852 8.70914 16.7789 8.65525L18.3914 7.72938C18.4021 7.72319 18.4145 7.72044 18.4268 7.72151C18.4391 7.72257 18.4508 7.7274 18.4603 7.73534C18.4698 7.74328 18.4766 7.75394 18.4799 7.76589C18.4831 7.77784 18.4826 7.79049 18.4784 7.80213L16.93 12.238H11.2454L9.6974 7.8025ZM8.7869 12.9888H19.3885C19.6551 12.989 19.9108 13.0949 20.0995 13.2832C20.2881 13.4716 20.3944 13.7271 20.395 13.9938V22.8738H7.7804V13.9938C7.78079 13.727 7.88699 13.4713 8.07568 13.2828C8.26437 13.0942 8.52015 12.9882 8.7869 12.988V12.9888ZM7.7804 26.5V23.6238H20.395V26.5H7.7804ZM23.182 10.9525C23.3876 10.9524 23.5885 11.0132 23.7595 11.1273C23.9305 11.2414 24.0638 11.4036 24.1426 11.5935C24.2213 11.7833 24.242 11.9923 24.202 12.1939C24.162 12.3955 24.0631 12.5807 23.9178 12.7261C23.7725 12.8715 23.5874 12.9706 23.3858 13.0107C23.1842 13.0509 22.9752 13.0304 22.7853 12.9517C22.5954 12.8731 22.433 12.7399 22.3188 12.569C22.2046 12.3981 22.1436 12.1972 22.1436 11.9916C22.1439 11.7163 22.2534 11.4522 22.4481 11.2574C22.6427 11.0627 22.9066 10.953 23.182 10.9525ZM21.1465 21.1045V18.1045H22.3769H22.3806H23.6125V21.1045H21.1465ZM23.6114 17.3545H22.7556V13.7234C23.0358 13.7999 23.3313 13.7999 23.6114 13.7234V17.3545Z" fill="white"/>
<path d="M9.35839 21.6625H18.8166C19.0085 21.6622 19.1923 21.5859 19.3279 21.4502C19.4635 21.3145 19.5398 21.1306 19.54 20.9388V16.5157C19.5398 16.3238 19.4635 16.1399 19.3279 16.0042C19.1923 15.8686 19.0085 15.7922 18.8166 15.7919H9.35839C9.16656 15.7922 8.98268 15.8686 8.84708 16.0042C8.71147 16.1399 8.63521 16.3238 8.63501 16.5157V20.9369C8.63486 21.032 8.65346 21.1263 8.68973 21.2142C8.726 21.3022 8.77924 21.3821 8.84642 21.4495C8.91359 21.5169 8.99337 21.5704 9.08122 21.6069C9.16906 21.6435 9.26324 21.6624 9.35839 21.6625ZM12.6494 20.9125V16.5329L15.5253 16.5247V20.9125H12.6494ZM18.79 20.9125H16.2753V16.525L18.79 16.5179V20.9125ZM9.38501 16.5419L11.8994 16.5352V20.9125H9.38501V16.5419Z" fill="white"/>
<path d="M16.2738 24.0505H11.9009C11.6246 24.0505 11.3596 24.1603 11.1643 24.3556C10.9689 24.551 10.8591 24.816 10.8591 25.0923C10.8591 25.3685 10.9689 25.6335 11.1643 25.8289C11.3596 26.0243 11.6246 26.134 11.9009 26.134H16.2738C16.55 26.134 16.815 26.0243 17.0104 25.8289C17.2058 25.6335 17.3155 25.3685 17.3155 25.0923C17.3155 24.816 17.2058 24.551 17.0104 24.3556C16.815 24.1603 16.55 24.0505 16.2738 24.0505ZM16.2738 25.384H11.9009C11.8235 25.384 11.7493 25.3533 11.6946 25.2986C11.6399 25.2438 11.6091 25.1696 11.6091 25.0923C11.6091 25.0149 11.6399 24.9407 11.6946 24.886C11.7493 24.8312 11.8235 24.8005 11.9009 24.8005H16.2738C16.3512 24.8005 16.4255 24.8312 16.4803 24.8859C16.5352 24.9406 16.5661 25.0148 16.5663 25.0923C16.5652 25.1694 16.534 25.2431 16.4794 25.2976C16.4247 25.3521 16.3509 25.3831 16.2738 25.384Z" fill="white"/>
<path d="M10.8081 14.6549H17.3672C17.4667 14.6549 17.5621 14.6154 17.6324 14.5451C17.7027 14.4747 17.7422 14.3794 17.7422 14.2799C17.7422 14.1805 17.7027 14.0851 17.6324 14.0147C17.5621 13.9444 17.4667 13.9049 17.3672 13.9049H10.8081C10.7086 13.9049 10.6133 13.9444 10.5429 14.0147C10.4726 14.0851 10.4331 14.1805 10.4331 14.2799C10.4331 14.3794 10.4726 14.4747 10.5429 14.5451C10.6133 14.6154 10.7086 14.6549 10.8081 14.6549Z" fill="white"/>
<path d="M14.3977 7.80922C14.3613 7.7615 14.3144 7.72281 14.2607 7.69618C14.2069 7.66955 14.1477 7.6557 14.0877 7.6557C14.0277 7.6557 13.9685 7.66955 13.9148 7.69618C13.861 7.72281 13.8141 7.7615 13.7778 7.80922L12.7964 9.24997C12.7539 9.31225 12.7312 9.38589 12.7312 9.46128C12.7312 9.53667 12.7539 9.61031 12.7964 9.67259L13.7778 11.1133C13.8122 11.1638 13.8584 11.2052 13.9124 11.2337C13.9664 11.2623 14.0266 11.2772 14.0877 11.2772C14.1488 11.2772 14.209 11.2623 14.263 11.2337C14.317 11.2052 14.3633 11.1638 14.3977 11.1133L15.3794 9.67259C15.4219 9.61031 15.4446 9.53667 15.4446 9.46128C15.4446 9.38589 15.4219 9.31225 15.3794 9.24997L14.3977 7.80922ZM14.0875 10.2358L13.5599 9.46109L14.0875 8.68747L14.6159 9.46184L14.0875 10.2358Z" fill="white"/>
</svg>
