<svg width="32" height="32" viewBox="0 0 32 32" fill="none" xmlns="http://www.w3.org/2000/svg">
<path d="M26.875 21.595H25.7762V10.2723C25.7755 9.99934 25.6664 9.73789 25.4731 9.54526C25.2798 9.35263 25.0179 9.24456 24.745 9.24476H21.742L15.8358 6.61038C15.7827 6.58647 15.7247 6.57534 15.6666 6.57788C15.6084 6.58042 15.5517 6.59656 15.5009 6.62501L10.7796 9.24476H7.255C6.98208 9.24456 6.72023 9.35263 6.5269 9.54526C6.33357 9.73789 6.22454 9.99934 6.22375 10.2723V21.5973H5.125C5.02554 21.5973 4.93016 21.6368 4.85983 21.7071C4.78951 21.7774 4.75 21.8728 4.75 21.9723C4.75149 22.8871 5.11571 23.7641 5.76279 24.4108C6.40987 25.0575 7.28701 25.4213 8.20187 25.4223H23.8C24.7149 25.4207 25.5918 25.0564 26.2386 24.4092C26.8853 23.7621 27.249 22.8849 27.25 21.97C27.25 21.8706 27.2105 21.7752 27.1402 21.7048C27.0698 21.6345 26.9745 21.595 26.875 21.595ZM18.3944 22.345L18.1056 22.9514C18.0797 23.0058 18.0388 23.0517 17.9879 23.0839C17.9369 23.1161 17.8779 23.1332 17.8176 23.1333H14.1824C14.1221 23.1332 14.0631 23.1161 14.0121 23.0839C13.9612 23.0517 13.9203 23.0058 13.8944 22.9514L13.6056 22.3446L18.3944 22.345ZM16.846 13.495L22.0724 10.6045V16.6671L16.846 19.5576V13.495ZM15.7 7.37126L21.5125 9.96476H21.5148L21.6051 10.0053L16.45 12.859L10.4088 10.309L15.7 7.37126ZM9.925 10.9199L16.096 13.525V19.6285L9.92763 17.0241L9.925 10.9199ZM6.97375 10.2723C6.97434 10.1982 7.00429 10.1274 7.05701 10.0754C7.10973 10.0233 7.18093 9.99436 7.255 9.99476H9.42775L9.37038 10.0266C9.36737 10.0266 9.3655 10.0315 9.3625 10.0334C9.3595 10.0353 9.35087 10.0386 9.34525 10.042C9.31483 10.0629 9.28766 10.0882 9.26462 10.117C9.259 10.1238 9.25487 10.1309 9.24962 10.138C9.22709 10.1693 9.20951 10.2038 9.1975 10.2404C9.1975 10.2456 9.193 10.2501 9.1915 10.2558C9.18254 10.2879 9.17787 10.321 9.17763 10.3544V17.275C9.17772 17.3487 9.19949 17.4207 9.24024 17.482C9.28099 17.5434 9.3389 17.5914 9.40675 17.62L16.3251 20.5375C16.3304 20.5398 16.336 20.5375 16.3412 20.5409C16.3826 20.5575 16.4265 20.5665 16.471 20.5675C16.505 20.5672 16.5389 20.5622 16.5715 20.5525C16.582 20.5495 16.5914 20.5443 16.6019 20.5405C16.6192 20.535 16.6361 20.5284 16.6525 20.5206L22.6292 17.215C22.6878 17.1825 22.7366 17.135 22.7706 17.0773C22.8045 17.0196 22.8224 16.9538 22.8224 16.8869V9.99476H24.745C24.8191 9.99436 24.8903 10.0233 24.943 10.0754C24.9957 10.1274 25.0257 10.1982 25.0262 10.2723V21.5935H6.97375V10.2723ZM23.8 24.6723H8.20187C7.55042 24.6714 6.92114 24.4355 6.42957 24.008C5.938 23.5805 5.61713 22.99 5.52587 22.345H12.775L13.2167 23.275C13.3041 23.4571 13.4411 23.6109 13.6119 23.7188C13.7827 23.8266 13.9804 23.8841 14.1824 23.8848H17.8176C18.0196 23.8841 18.2173 23.8266 18.3881 23.7188C18.5589 23.6109 18.6959 23.4571 18.7833 23.275L19.225 22.3454H26.4741C26.3828 22.99 26.0622 23.5802 25.571 24.0075C25.0799 24.4349 24.4511 24.6709 23.8 24.6723Z" fill="white"/>
<path d="M16.0574 10.96C17.1407 10.96 18.3074 10.6142 18.3074 9.85449C18.3074 9.09474 17.1419 8.74937 16.0574 8.74937C14.9729 8.74937 13.8074 9.09512 13.8074 9.85449C13.8074 10.6139 14.9747 10.96 16.0574 10.96ZM16.0574 9.49937C16.9232 9.49937 17.4272 9.73112 17.5412 9.85449C17.4287 9.97824 16.9232 10.21 16.0574 10.21C15.1915 10.21 14.6882 9.97824 14.5739 9.85449C14.6875 9.73112 15.1922 9.49937 16.0574 9.49937Z" fill="white"/>
<path d="M11.7144 12.6123C11.0566 12.6123 10.5417 13.2498 10.5417 14.0635C10.5417 14.8773 11.0566 15.5148 11.7144 15.5148C12.3721 15.5148 12.8866 14.8773 12.8866 14.0635C12.8866 13.2498 12.3717 12.6123 11.7144 12.6123ZM11.7144 14.7648C11.5145 14.7648 11.2917 14.4768 11.2917 14.0635C11.2917 13.6503 11.5145 13.3623 11.7144 13.3623C11.9142 13.3623 12.1366 13.6499 12.1366 14.0635C12.1366 14.4771 11.9124 14.7648 11.7144 14.7648Z" fill="white"/>
<path d="M14.0351 15.4277C13.3773 15.4277 12.8624 16.0652 12.8624 16.879C12.8624 17.6927 13.3773 18.3302 14.0351 18.3302C14.6928 18.3302 15.2077 17.6927 15.2077 16.879C15.2077 16.0652 14.6928 15.4277 14.0351 15.4277ZM14.0351 17.5802C13.8352 17.5802 13.6124 17.2922 13.6124 16.879C13.6124 16.4657 13.8352 16.1777 14.0351 16.1777C14.2349 16.1777 14.4577 16.4654 14.4577 16.879C14.4577 17.2926 14.2349 17.5802 14.0351 17.5802Z" fill="white"/>
<path d="M18.025 15.7814C17.4674 15.7814 17.0305 16.3135 17.0305 16.9922C17.0305 17.671 17.4674 18.2035 18.025 18.2035C18.5826 18.2035 19.0199 17.6714 19.0199 16.9922C19.0199 16.3131 18.5823 15.7814 18.025 15.7814ZM18.025 17.4535C17.9279 17.4535 17.7805 17.2697 17.7805 16.9922C17.7805 16.7147 17.9279 16.5314 18.025 16.5314C18.1221 16.5314 18.2699 16.7151 18.2699 16.9922C18.2699 17.2694 18.1218 17.4535 18.025 17.4535Z" fill="white"/>
<path d="M19.4594 13.8708C18.9014 13.8708 18.4645 14.4029 18.4645 15.082C18.4645 15.7611 18.9014 16.2929 19.4594 16.2929C20.0174 16.2929 20.4539 15.7608 20.4539 15.082C20.4539 14.4033 20.017 13.8708 19.4594 13.8708ZM19.4594 15.5429C19.3619 15.5429 19.2145 15.3591 19.2145 15.082C19.2145 14.8049 19.3619 14.6208 19.4594 14.6208C19.5569 14.6208 19.7039 14.8045 19.7039 15.082C19.7039 15.3595 19.5565 15.5429 19.4594 15.5429Z" fill="white"/>
<path d="M20.894 11.9609C20.336 11.9609 19.8992 12.4926 19.8992 13.1718C19.8992 13.8509 20.336 14.383 20.894 14.383C21.452 14.383 21.8885 13.8509 21.8885 13.1718C21.8885 12.4926 21.4517 11.9609 20.894 11.9609ZM20.894 13.633C20.7965 13.633 20.6492 13.4489 20.6492 13.1718C20.6492 12.8946 20.7965 12.7109 20.894 12.7109C20.9915 12.7109 21.1385 12.8946 21.1385 13.1718C21.1385 13.4489 20.9915 13.633 20.894 13.633Z" fill="white"/>
</svg>
