<svg width="32" height="32" viewBox="0 0 32 32" fill="none" xmlns="http://www.w3.org/2000/svg">
<path d="M21.4971 11.5893C20.8382 11.5893 20.1818 11.6718 19.5434 11.8349V11.2518C19.5434 11.1523 19.5039 11.0569 19.4335 10.9866C19.3632 10.9163 19.2678 10.8768 19.1684 10.8768H17.2656C17.4692 10.472 17.5312 10.0107 17.4417 9.56664C17.3522 9.12254 17.1163 8.72128 16.7718 8.42703C16.4273 8.13279 15.9941 7.96256 15.5415 7.94357C15.0889 7.92457 14.6429 8.05792 14.275 8.32227C13.42 9.03806 12.7027 9.90371 12.1581 10.8768H12.1337C11.5891 9.90411 10.8721 9.03865 10.0176 8.32264C9.64975 8.05803 9.20376 7.92445 8.75099 7.94328C8.29822 7.96211 7.86486 8.13226 7.52023 8.42652C7.17561 8.72077 6.93964 9.12211 6.85008 9.56633C6.76052 10.0106 6.82256 10.472 7.02625 10.8768H5.125C5.02554 10.8768 4.93016 10.9163 4.85983 10.9866C4.78951 11.0569 4.75 11.1523 4.75 11.2518V14.9466C4.75 15.0461 4.78951 15.1415 4.85983 15.2118C4.93016 15.2821 5.02554 15.3216 5.125 15.3216H5.84688V23.6875C5.84688 23.787 5.88638 23.8824 5.95671 23.9527C6.02704 24.023 6.12242 24.0625 6.22188 24.0625H18.0681C18.1676 24.0625 18.263 24.023 18.3333 23.9527C18.4036 23.8824 18.4431 23.787 18.4431 23.6875V19.6859H21.4971C24.6693 19.6859 27.25 17.8698 27.25 15.6359C27.25 13.402 24.6693 11.5893 21.4971 11.5893ZM18.7934 12.0666C17.4141 12.5875 16.375 13.4894 15.9531 14.5716H15.625V11.6268H18.7938L18.7934 12.0666ZM9.41838 14.5716V11.6275H11.9012H11.9076H11.9117H12.3801H12.3842H12.3906H14.875V14.5716H9.41838ZM14.7141 8.93014C14.9754 8.747 15.2959 8.66848 15.6123 8.71011C15.9286 8.75173 16.2179 8.91046 16.4229 9.15496C16.6279 9.39946 16.7338 9.71196 16.7197 10.0307C16.7055 10.3495 16.5724 10.6514 16.3465 10.8768H13.024C13.4857 10.1462 14.0556 9.48984 14.7141 8.93014ZM7.79612 9.21927C7.89408 9.08312 8.01793 8.96763 8.16059 8.87942C8.30324 8.79122 8.4619 8.73202 8.62747 8.70524C8.79305 8.67845 8.96228 8.68459 9.12547 8.72331C9.28866 8.76204 9.44261 8.83258 9.5785 8.93089C10.2367 9.49045 10.8063 10.1465 11.2679 10.8768H7.94537C7.72505 10.6648 7.58865 10.3804 7.56123 10.0759C7.53381 9.77138 7.61722 9.4672 7.79612 9.21927ZM5.5 11.6268H8.66725V14.5716H5.5V11.6268ZM6.59688 15.3216H9.03775H9.04225H9.69588V23.3125H6.59688V15.3216ZM10.4459 23.3125V15.325H13.846V23.3125H10.4459ZM17.6931 23.3125H14.596V15.325H15.25H15.2545H15.7671C15.754 15.4299 15.7464 15.5354 15.7446 15.6411C15.7556 16.083 15.8549 16.5182 16.0365 16.9212C16.2182 17.3241 16.4786 17.6867 16.8025 17.9875L15.7428 19.0473C15.6903 19.0997 15.6546 19.1665 15.6402 19.2393C15.6257 19.312 15.6331 19.3874 15.6615 19.4559C15.6899 19.5244 15.7379 19.583 15.7996 19.6242C15.8612 19.6654 15.9337 19.6874 16.0079 19.6874H17.6931V23.3125ZM21.4971 18.9359H18.0745C18.0723 18.9359 18.0704 18.9359 18.0681 18.9359C18.0659 18.9359 18.064 18.9359 18.0618 18.9359H16.9131L17.6125 18.238C17.6494 18.2011 17.6782 18.1569 17.697 18.1082C17.7159 18.0596 17.7244 18.0075 17.7219 17.9554C17.7195 17.9032 17.7062 17.8522 17.6829 17.8055C17.6596 17.7588 17.6268 17.7174 17.5866 17.6841C17.2627 17.447 16.9964 17.1398 16.8075 16.7855C16.6187 16.4312 16.5121 16.0389 16.4957 15.6378C16.4957 13.819 18.7401 12.3378 21.4986 12.3378C24.2571 12.3378 26.5 13.819 26.5 15.6378C26.5 17.4565 24.2556 18.9359 21.4971 18.9359Z" fill="white"/>
<path d="M21.1852 13.9484C21.1377 13.9356 21.088 13.9322 21.0392 13.9386C20.9903 13.945 20.9432 13.9609 20.9005 13.9855C20.8578 14.0101 20.8204 14.0428 20.7903 14.0819C20.7603 14.121 20.7383 14.1656 20.7255 14.2131L20.3681 15.541L19.9999 14.2105C19.9782 14.1324 19.9318 14.0634 19.8677 14.0138C19.8035 13.9643 19.725 13.9368 19.644 13.9356C19.5638 13.9372 19.4861 13.9631 19.4211 14.01C19.3561 14.0569 19.3069 14.1226 19.2802 14.1981L18.864 15.5388L18.5539 14.2233C18.531 14.1264 18.4707 14.0427 18.3861 13.9903C18.3015 13.938 18.1995 13.9214 18.1027 13.9443C18.0059 13.9671 17.9221 14.0274 17.8698 14.112C17.8175 14.1966 17.8009 14.2986 17.8237 14.3954L18.45 17.0493C18.4688 17.1293 18.5135 17.2009 18.577 17.2531C18.6406 17.3053 18.7196 17.3351 18.8017 17.338H18.8149C18.8947 17.3381 18.9725 17.3127 19.0369 17.2655C19.1014 17.2182 19.149 17.1517 19.173 17.0755L19.6177 15.6415L20.0126 17.0646C20.0346 17.1438 20.082 17.2136 20.1475 17.2632C20.2131 17.3129 20.2931 17.3396 20.3753 17.3393C20.4575 17.339 20.5373 17.3117 20.6025 17.2616C20.6677 17.2115 20.7146 17.1414 20.736 17.062L21.4507 14.4081C21.4635 14.3605 21.4668 14.3108 21.4604 14.2619C21.454 14.213 21.438 14.1659 21.4133 14.1232C21.3887 14.0805 21.3558 14.0431 21.3167 14.0131C21.2776 13.9831 21.2329 13.9611 21.1852 13.9484Z" fill="white"/>
<path d="M22.1628 13.9375C22.0634 13.9375 21.968 13.977 21.8977 14.0473C21.8274 14.1177 21.7878 14.213 21.7878 14.3125V16.9664C21.7878 17.0658 21.8274 17.1612 21.8977 17.2315C21.968 17.3019 22.0634 17.3414 22.1628 17.3414C22.2623 17.3414 22.3577 17.3019 22.428 17.2315C22.4983 17.1612 22.5378 17.0658 22.5378 16.9664V14.3125C22.5378 14.213 22.4983 14.1177 22.428 14.0473C22.3577 13.977 22.2623 13.9375 22.1628 13.9375Z" fill="white"/>
<path d="M24.694 13.9375C24.5945 13.9375 24.4991 13.977 24.4288 14.0473C24.3585 14.1176 24.319 14.213 24.319 14.3125V15.4536L23.6241 14.1374C23.5851 14.0631 23.5223 14.0042 23.4458 13.9698C23.3693 13.9355 23.2835 13.9278 23.2021 13.948C23.1207 13.9681 23.0484 14.015 22.9967 14.0811C22.9451 14.1471 22.9171 14.2286 22.9172 14.3125V16.9664C22.9172 17.0658 22.9567 17.1612 23.0271 17.2315C23.0974 17.3018 23.1928 17.3414 23.2922 17.3414C23.3917 17.3414 23.4871 17.3018 23.5574 17.2315C23.6277 17.1612 23.6672 17.0658 23.6672 16.9664V15.8237L24.3625 17.1396C24.4016 17.2136 24.4644 17.2724 24.5408 17.3066C24.6173 17.3408 24.7029 17.3484 24.7842 17.3283C24.8655 17.3081 24.9377 17.2614 24.9893 17.1954C25.0409 17.1295 25.0689 17.0482 25.069 16.9645V14.3125C25.069 14.213 25.0295 14.1176 24.9592 14.0473C24.8888 13.977 24.7934 13.9375 24.694 13.9375Z" fill="white"/>
</svg>
