<svg width="16" height="16" viewBox="0 0 16 16" fill="none" xmlns="http://www.w3.org/2000/svg">
<path d="M11.5005 8C11.5007 7.83608 11.466 7.67399 11.3986 7.52457C11.3312 7.37515 11.2327 7.24182 11.1096 7.13349L5.52065 2.21657C5.33545 2.06116 5.09679 1.98438 4.85571 2.00265C4.61463 2.02092 4.39027 2.13278 4.2306 2.31432C4.07093 2.49586 3.98862 2.73266 4.00127 2.9741C4.01392 3.21554 4.12054 3.44244 4.29831 3.60629L9.18566 7.90578C9.19908 7.91754 9.20983 7.93203 9.21719 7.94828C9.22456 7.96453 9.22837 7.98216 9.22837 8C9.22837 8.01784 9.22456 8.03547 9.21719 8.05172C9.20983 8.06797 9.19908 8.08246 9.18566 8.09422L4.29831 12.3937C4.12054 12.5576 4.01392 12.7845 4.00127 13.0259C3.98862 13.2673 4.07093 13.5041 4.2306 13.6857C4.39027 13.8672 4.61463 13.9791 4.85571 13.9974C5.09679 14.0156 5.33545 13.9388 5.52065 13.7834L11.1076 8.86802C11.231 8.75949 11.3298 8.62596 11.3975 8.4763C11.4653 8.32664 11.5004 8.16428 11.5005 8Z" fill="white"/>
</svg>
