<svg width="16" height="16" viewBox="0 0 16 16" fill="none" xmlns="http://www.w3.org/2000/svg">
<path d="M8 4.49946C8.16392 4.49926 8.32601 4.53402 8.47543 4.60143C8.62485 4.66884 8.75818 4.76734 8.86651 4.89037L13.7834 10.4793C13.9388 10.6646 14.0156 10.9032 13.9974 11.1443C13.9791 11.3854 13.8672 11.6097 13.6857 11.7694C13.5041 11.9291 13.2673 12.0114 13.0259 11.9987C12.7845 11.9861 12.5576 11.8795 12.3937 11.7017L8.09422 6.81434C8.08246 6.80092 8.06797 6.79017 8.05172 6.78281C8.03547 6.77544 8.01784 6.77163 8 6.77163C7.98216 6.77163 7.96453 6.77544 7.94828 6.78281C7.93203 6.79017 7.91754 6.80092 7.90578 6.81434L3.60629 11.7017C3.44244 11.8795 3.21554 11.9861 2.9741 11.9987C2.73266 12.0114 2.49586 11.9291 2.31432 11.7694C2.13278 11.6097 2.02092 11.3854 2.00265 11.1443C1.98438 10.9032 2.06116 10.6646 2.21657 10.4793L7.13198 4.89237C7.24051 4.76904 7.37404 4.67022 7.5237 4.60248C7.67336 4.53473 7.83572 4.49961 8 4.49946Z" fill="white"/>
</svg>
