<svg width="32" height="32" viewBox="0 0 32 32" fill="none" xmlns="http://www.w3.org/2000/svg">
<path d="M26.7527 10.72C26.539 10.5403 26.275 10.4311 25.9969 10.4071C25.7187 10.3831 25.44 10.4457 25.1987 10.5861L21.5237 12.6966C21.4524 12.7378 21.3735 12.7643 21.2917 12.7745C21.21 12.7846 21.127 12.7783 21.0478 12.7559C20.9685 12.7334 20.8946 12.6953 20.8303 12.6438C20.766 12.5922 20.7127 12.5284 20.6736 12.4559L17.2018 6.05501C17.0844 5.8387 16.9107 5.6581 16.6992 5.53226C16.4877 5.40641 16.2461 5.33999 16 5.33999C15.7538 5.33999 15.5122 5.40641 15.3007 5.53226C15.0892 5.6581 14.9155 5.8387 14.7981 6.05501L11.3267 12.4559C11.2876 12.5284 11.2343 12.5923 11.17 12.6439C11.1058 12.6954 11.0318 12.7336 10.9525 12.756C10.8733 12.7785 10.7903 12.7848 10.7085 12.7746C10.6268 12.7644 10.5479 12.7379 10.4766 12.6966L6.80158 10.5861C6.55978 10.4474 6.28135 10.3858 6.00359 10.4097C5.72582 10.4336 5.462 10.5418 5.24745 10.7198C5.03291 10.8979 4.8779 11.1372 4.80319 11.4058C4.72848 11.6744 4.73765 11.9594 4.82945 12.2226L8.38483 22.4125H8.04995C7.83897 22.4127 7.63668 22.4966 7.48749 22.6458C7.3383 22.795 7.2544 22.9973 7.2542 23.2083V25.8663C7.2548 26.077 7.33887 26.2789 7.48802 26.4277C7.63717 26.5766 7.83923 26.6603 8.04995 26.6605H23.95C24.1609 26.6603 24.3632 26.5764 24.5124 26.4272C24.6616 26.278 24.7455 26.0757 24.7457 25.8648V23.2068C24.7451 22.996 24.661 22.7941 24.5119 22.6453C24.3627 22.4964 24.1607 22.4127 23.95 22.4125H23.6143L27.1701 12.2241C27.2639 11.961 27.2742 11.6752 27.1995 11.406C27.1248 11.1368 26.9688 10.8972 26.7527 10.72ZM23.9965 23.2075V25.8655C23.9965 25.8776 23.9916 25.8893 23.9831 25.8979C23.9745 25.9064 23.9628 25.9113 23.9507 25.9113H8.04995C8.03782 25.9113 8.02618 25.9064 8.0176 25.8979C8.00902 25.8893 8.0042 25.8776 8.0042 25.8655V23.2068C8.0045 23.1949 8.00946 23.1835 8.01802 23.1753C8.02658 23.167 8.03804 23.1624 8.04995 23.1625H23.95C23.9559 23.1624 23.9618 23.1634 23.9674 23.1655C23.973 23.1677 23.9781 23.1709 23.9824 23.175C23.9867 23.1791 23.9902 23.184 23.9926 23.1895C23.995 23.1949 23.9963 23.2008 23.9965 23.2068V23.2075ZM26.4625 11.9759L22.8208 22.4125H9.17908L5.53745 11.9759C5.49627 11.8571 5.49233 11.7286 5.52616 11.6075C5.55998 11.4864 5.62995 11.3785 5.72672 11.2982C5.8235 11.218 5.94246 11.1691 6.06772 11.1583C6.19298 11.1474 6.31857 11.1751 6.4277 11.2375L10.1027 13.348C10.261 13.4391 10.436 13.4975 10.6172 13.5198C10.7985 13.5422 10.9824 13.5279 11.1581 13.478C11.3338 13.4281 11.4977 13.3435 11.6401 13.2292C11.7826 13.1149 11.9007 12.9732 11.9875 12.8125L15.4573 6.41276C15.5103 6.31504 15.5887 6.23345 15.6842 6.17659C15.7797 6.11973 15.8888 6.08971 16 6.08971C16.1111 6.08971 16.2202 6.11973 16.3157 6.17659C16.4112 6.23345 16.4896 6.31504 16.5426 6.41276L20.0125 12.8125C20.0994 12.9728 20.2176 13.1142 20.3599 13.2282C20.5023 13.3422 20.6661 13.4265 20.8416 13.4763C21.0171 13.526 21.2007 13.5402 21.3817 13.5179C21.5628 13.4956 21.7375 13.4373 21.8957 13.3465L25.5707 11.236C25.68 11.1728 25.806 11.1446 25.9318 11.1552C26.0576 11.1658 26.1771 11.2147 26.2743 11.2953C26.3715 11.3759 26.4416 11.4844 26.4752 11.6061C26.5089 11.7277 26.5044 11.8568 26.4625 11.9759Z" fill="white"/>
<path d="M16.3098 12.1049C16.2735 12.0571 16.2267 12.0184 16.1729 11.9917C16.1192 11.965 16.06 11.9511 16 11.9511C15.94 11.9511 15.8809 11.965 15.8271 11.9917C15.7734 12.0184 15.7266 12.0571 15.6903 12.1049L13.4523 15.3895C13.4098 15.4518 13.3871 15.5254 13.3871 15.6008C13.3871 15.6762 13.4098 15.7499 13.4523 15.8121L15.6903 19.0968C15.7247 19.1472 15.7709 19.1885 15.8249 19.217C15.8789 19.2455 15.939 19.2604 16 19.2604C16.0611 19.2604 16.1212 19.2455 16.1752 19.217C16.2292 19.1885 16.2754 19.1472 16.3098 19.0968L18.5478 15.8125C18.5903 15.7502 18.613 15.6766 18.613 15.6012C18.613 15.5258 18.5903 15.4522 18.5478 15.3899L16.3098 12.1049ZM16 18.2193L14.2158 15.601L16 12.9824L17.7843 15.601L16 18.2193Z" fill="white"/>
<path d="M10.1976 24.1607H9.87097C9.77152 24.1607 9.67613 24.2002 9.60581 24.2706C9.53548 24.3409 9.49597 24.4363 9.49597 24.5357C9.49597 24.6352 9.53548 24.7306 9.60581 24.8009C9.67613 24.8712 9.77152 24.9107 9.87097 24.9107H10.1976C10.2971 24.9107 10.3924 24.8712 10.4628 24.8009C10.5331 24.7306 10.5726 24.6352 10.5726 24.5357C10.5726 24.4363 10.5331 24.3409 10.4628 24.2706C10.3924 24.2002 10.2971 24.1607 10.1976 24.1607Z" fill="white"/>
<path d="M12.1862 24.1607H11.8596C11.7602 24.1607 11.6648 24.2002 11.5945 24.2706C11.5241 24.3409 11.4846 24.4363 11.4846 24.5357C11.4846 24.6352 11.5241 24.7306 11.5945 24.8009C11.6648 24.8712 11.7602 24.9107 11.8596 24.9107H12.1862C12.2857 24.9107 12.3811 24.8712 12.4514 24.8009C12.5217 24.7306 12.5612 24.6352 12.5612 24.5357C12.5612 24.4363 12.5217 24.3409 12.4514 24.2706C12.3811 24.2002 12.2857 24.1607 12.1862 24.1607Z" fill="white"/>
<path d="M14.1749 24.1607H13.8483C13.7488 24.1607 13.6534 24.2002 13.5831 24.2706C13.5128 24.3409 13.4733 24.4363 13.4733 24.5357C13.4733 24.6352 13.5128 24.7306 13.5831 24.8009C13.6534 24.8712 13.7488 24.9107 13.8483 24.9107H14.1749C14.2743 24.9107 14.3697 24.8712 14.4401 24.8009C14.5104 24.7306 14.5499 24.6352 14.5499 24.5357C14.5499 24.4363 14.5104 24.3409 14.4401 24.2706C14.3697 24.2002 14.2743 24.1607 14.1749 24.1607Z" fill="white"/>
<path d="M16.1634 24.1607H15.8364C15.737 24.1607 15.6416 24.2002 15.5713 24.2706C15.5009 24.3409 15.4614 24.4363 15.4614 24.5357C15.4614 24.6352 15.5009 24.7306 15.5713 24.8009C15.6416 24.8712 15.737 24.9107 15.8364 24.9107H16.1634C16.2629 24.9107 16.3583 24.8712 16.4286 24.8009C16.4989 24.7306 16.5384 24.6352 16.5384 24.5357C16.5384 24.4363 16.4989 24.3409 16.4286 24.2706C16.3583 24.2002 16.2629 24.1607 16.1634 24.1607Z" fill="white"/>
<path d="M18.1517 24.1607H17.8251C17.7256 24.1607 17.6302 24.2002 17.5599 24.2706C17.4896 24.3409 17.4501 24.4363 17.4501 24.5357C17.4501 24.6352 17.4896 24.7306 17.5599 24.8009C17.6302 24.8712 17.7256 24.9107 17.8251 24.9107H18.1517C18.2512 24.9107 18.3465 24.8712 18.4169 24.8009C18.4872 24.7306 18.5267 24.6352 18.5267 24.5357C18.5267 24.4363 18.4872 24.3409 18.4169 24.2706C18.3465 24.2002 18.2512 24.1607 18.1517 24.1607Z" fill="white"/>
<path d="M20.1403 24.1607H19.8137C19.7143 24.1607 19.6189 24.2002 19.5486 24.2706C19.4782 24.3409 19.4387 24.4363 19.4387 24.5357C19.4387 24.6352 19.4782 24.7306 19.5486 24.8009C19.6189 24.8712 19.7143 24.9107 19.8137 24.9107H20.1403C20.2398 24.9107 20.3352 24.8712 20.4055 24.8009C20.4758 24.7306 20.5153 24.6352 20.5153 24.5357C20.5153 24.4363 20.4758 24.3409 20.4055 24.2706C20.3352 24.2002 20.2398 24.1607 20.1403 24.1607Z" fill="white"/>
<path d="M22.1291 24.1607H21.8025C21.703 24.1607 21.6077 24.2002 21.5373 24.2706C21.467 24.3409 21.4275 24.4363 21.4275 24.5357C21.4275 24.6352 21.467 24.7306 21.5373 24.8009C21.6077 24.8712 21.703 24.9107 21.8025 24.9107H22.1291C22.2286 24.9107 22.324 24.8712 22.3943 24.8009C22.4646 24.7306 22.5041 24.6352 22.5041 24.5357C22.5041 24.4363 22.4646 24.3409 22.3943 24.2706C22.324 24.2002 22.2286 24.1607 22.1291 24.1607Z" fill="white"/>
</svg>
